<svg xmlns="http://www.w3.org/2000/svg" version="1.1" xmlns:xlink="http://www.w3.org/1999/xlink" xmlns:svgjs="http://svgjs.dev/svgjs" viewBox="0 0 12.852916699477628 13.319446742469191"><g transform="matrix(1,0,0,1,1.0903072266919391,8.886764515777251)"><g><path d=" M 0.1485 1.0649999999999997 Q 0.132 1.0649999999999997 0.1215 1.0544999999999998 Q 0.111 1.0439999999999998 0.111 1.0274999999999996 L 0.111 0.05249999999999977 Q 0.111 0.03599999999999981 0.1215 0.025499999999999634 Q 0.132 0.01499999999999968 0.1485 0.01499999999999968 L 0.546 0.01499999999999968 Q 0.7335 0.01499999999999968 0.8415 0.10124999999999973 Q 0.9495 0.18749999999999967 0.9495 0.3494999999999997 Q 0.9495 0.45899999999999974 0.897 0.5324999999999998 Q 0.8445 0.6059999999999997 0.756 0.6419999999999997 L 0.9675 1.0169999999999997 Q 0.972 1.0259999999999998 0.972 1.0334999999999996 Q 0.972 1.0454999999999997 0.963 1.0552499999999998 Q 0.9540000000000001 1.0649999999999997 0.9405 1.0649999999999997 L 0.774 1.0649999999999997 Q 0.747 1.0649999999999997 0.7335 1.0507499999999996 Q 0.72 1.0364999999999998 0.714 1.0244999999999997 L 0.531 0.6809999999999997 L 0.34950000000000003 0.6809999999999997 L 0.34950000000000003 1.0274999999999996 Q 0.34950000000000003 1.0439999999999998 0.339 1.0544999999999998 Q 0.3285 1.0649999999999997 0.312 1.0649999999999997 L 0.1485 1.0649999999999997 M 0.34950000000000003 0.4904999999999997 L 0.5415 0.4904999999999997 Q 0.624 0.4904999999999997 0.6637500000000001 0.45299999999999974 Q 0.7035 0.41549999999999976 0.7035 0.34799999999999975 Q 0.7035 0.28049999999999975 0.6645 0.24149999999999971 Q 0.6255000000000001 0.20249999999999968 0.5415 0.20249999999999968 L 0.34950000000000003 0.20249999999999968 L 0.34950000000000003 0.4904999999999997 M 1.17151025390625 1.0649999999999997 Q 1.1550102539062501 1.0649999999999997 1.14451025390625 1.0544999999999998 Q 1.13401025390625 1.0439999999999998 1.13401025390625 1.0274999999999996 L 1.13401025390625 0.05249999999999977 Q 1.13401025390625 0.03599999999999981 1.14451025390625 0.025499999999999634 Q 1.1550102539062501 0.01499999999999968 1.17151025390625 0.01499999999999968 L 1.85101025390625 0.01499999999999968 Q 1.86751025390625 0.01499999999999968 1.87801025390625 0.025499999999999634 Q 1.88851025390625 0.03599999999999981 1.88851025390625 0.05249999999999977 L 1.88851025390625 0.17249999999999965 Q 1.88851025390625 0.18749999999999967 1.87801025390625 0.19799999999999973 Q 1.86751025390625 0.20849999999999969 1.85101025390625 0.20849999999999969 L 1.36501025390625 0.20849999999999969 L 1.36501025390625 0.44399999999999973 L 1.81801025390625 0.44399999999999973 Q 1.83451025390625 0.44399999999999973 1.84501025390625 0.4544999999999997 Q 1.85551025390625 0.46499999999999975 1.85551025390625 0.4814999999999997 L 1.85551025390625 0.5924999999999997 Q 1.85551025390625 0.6074999999999997 1.84501025390625 0.6179999999999997 Q 1.83451025390625 0.6284999999999997 1.81801025390625 0.6284999999999997 L 1.36501025390625 0.6284999999999997 L 1.36501025390625 0.8714999999999997 L 1.8630102539062499 0.8714999999999997 Q 1.87951025390625 0.8714999999999997 1.89001025390625 0.8819999999999997 Q 1.90051025390625 0.8924999999999997 1.90051025390625 0.9089999999999997 L 1.90051025390625 1.0274999999999996 Q 1.90051025390625 1.0439999999999998 1.89001025390625 1.0544999999999998 Q 1.87951025390625 1.0649999999999997 1.8630102539062499 1.0649999999999997 L 1.17151025390625 1.0649999999999997 M 2.457017578125 1.0799999999999996 Q 2.313017578125 1.0799999999999996 2.216267578125 1.0379999999999998 Q 2.119517578125 0.9959999999999998 2.070017578125 0.9284999999999997 Q 2.020517578125 0.8609999999999998 2.017517578125 0.7844999999999998 Q 2.017517578125 0.7724999999999997 2.026517578125 0.7627499999999997 Q 2.035517578125 0.7529999999999997 2.049017578125 0.7529999999999997 L 2.209517578125 0.7529999999999997 Q 2.229017578125 0.7529999999999997 2.239517578125 0.7612499999999998 Q 2.250017578125 0.7694999999999997 2.259017578125 0.7814999999999996 Q 2.269517578125 0.8069999999999997 2.292767578125 0.8309999999999997 Q 2.316017578125 0.8549999999999998 2.356517578125 0.8707499999999997 Q 2.397017578125 0.8864999999999997 2.457017578125 0.8864999999999997 Q 2.554517578125 0.8864999999999997 2.603267578125 0.8549999999999998 Q 2.652017578125 0.8234999999999997 2.652017578125 0.7694999999999997 Q 2.652017578125 0.7304999999999997 2.625767578125 0.7064999999999997 Q 2.599517578125 0.6824999999999997 2.543267578125 0.6629999999999997 Q 2.487017578125 0.6434999999999997 2.394017578125 0.6209999999999998 Q 2.281517578125 0.5969999999999998 2.202767578125 0.5587499999999997 Q 2.124017578125 0.5204999999999997 2.084267578125 0.45974999999999966 Q 2.044517578125 0.3989999999999997 2.044517578125 0.3089999999999997 Q 2.044517578125 0.21899999999999975 2.094017578125 0.14924999999999966 Q 2.143517578125 0.07949999999999968 2.233517578125 0.03974999999999973 Q 2.323517578125 -2.220446049250313e-16 2.448017578125 -2.220446049250313e-16 Q 2.548517578125 -2.220446049250313e-16 2.625767578125 0.02699999999999969 Q 2.703017578125 0.053999999999999604 2.754767578125 0.0974999999999997 Q 2.806517578125 0.14099999999999968 2.833517578125 0.19049999999999967 Q 2.860517578125 0.23999999999999966 2.862017578125 0.28649999999999975 Q 2.862017578125 0.29849999999999965 2.853017578125 0.3082499999999997 Q 2.844017578125 0.3179999999999997 2.830517578125 0.3179999999999997 L 2.662517578125 0.3179999999999997 Q 2.647517578125 0.3179999999999997 2.635517578125 0.3119999999999997 Q 2.623517578125 0.3059999999999997 2.616017578125 0.2909999999999997 Q 2.6070175781250002 0.25199999999999967 2.562767578125 0.22274999999999967 Q 2.518517578125 0.19349999999999967 2.448017578125 0.19349999999999967 Q 2.374517578125 0.19349999999999967 2.331767578125 0.2204999999999997 Q 2.289017578125 0.24749999999999972 2.289017578125 0.3029999999999997 Q 2.289017578125 0.33899999999999975 2.310767578125 0.3637499999999997 Q 2.332517578125 0.38849999999999973 2.384267578125 0.40724999999999967 Q 2.436017578125 0.4259999999999997 2.521517578125 0.4484999999999997 Q 2.653517578125 0.4754999999999997 2.736017578125 0.5129999999999997 Q 2.8185175781250003 0.5504999999999998 2.857517578125 0.6097499999999998 Q 2.896517578125 0.6689999999999997 2.896517578125 0.7589999999999997 Q 2.896517578125 0.8594999999999997 2.840267578125 0.9314999999999998 Q 2.784017578125 1.0034999999999998 2.685767578125 1.0417499999999997 Q 2.587517578125 1.0799999999999996 2.457017578125 1.0799999999999996 M 3.314955322265625 1.0649999999999997 Q 3.298455322265625 1.0649999999999997 3.287955322265625 1.0544999999999998 Q 3.277455322265625 1.0439999999999998 3.277455322265625 1.0274999999999996 L 3.277455322265625 0.2234999999999997 L 3.004455322265625 0.2234999999999997 Q 2.989455322265625 0.2234999999999997 2.978955322265625 0.21299999999999975 Q 2.968455322265625 0.20249999999999968 2.968455322265625 0.18749999999999967 L 2.968455322265625 0.05249999999999977 Q 2.968455322265625 0.03599999999999981 2.978955322265625 0.025499999999999634 Q 2.989455322265625 0.01499999999999968 3.004455322265625 0.01499999999999968 L 3.790455322265625 0.01499999999999968 Q 3.806955322265625 0.01499999999999968 3.817455322265625 0.025499999999999634 Q 3.827955322265625 0.03599999999999981 3.827955322265625 0.05249999999999977 L 3.827955322265625 0.18749999999999967 Q 3.827955322265625 0.20249999999999968 3.817455322265625 0.21299999999999975 Q 3.806955322265625 0.2234999999999997 3.790455322265625 0.2234999999999997 L 3.518955322265625 0.2234999999999997 L 3.518955322265625 1.0274999999999996 Q 3.518955322265625 1.0439999999999998 3.508455322265625 1.0544999999999998 Q 3.497955322265625 1.0649999999999997 3.4814553222656253 1.0649999999999997 L 3.314955322265625 1.0649999999999997 M 3.8024296875 1.0649999999999997 Q 3.7889296875 1.0649999999999997 3.7799296875 1.0552499999999998 Q 3.7709296875 1.0454999999999997 3.7709296875 1.0334999999999996 Q 3.7709296875 1.0259999999999998 3.7724296875 1.0199999999999998 L 4.1294296875 0.05549999999999966 Q 4.1339296875 0.0389999999999997 4.1474296875 0.02699999999999969 Q 4.1609296875 0.01499999999999968 4.1849296875 0.01499999999999968 L 4.3769296875 0.01499999999999968 Q 4.4009296875 0.01499999999999968 4.4144296875 0.02699999999999969 Q 4.4279296875 0.0389999999999997 4.4324296875 0.05549999999999966 L 4.7894296875 1.0199999999999998 Q 4.7909296875 1.0259999999999998 4.7909296875 1.0334999999999996 Q 4.7909296875 1.0454999999999997 4.7819296875 1.0552499999999998 Q 4.7729296875 1.0649999999999997 4.7594296875 1.0649999999999997 L 4.6034296875 1.0649999999999997 Q 4.5809296875 1.0649999999999997 4.5704296875 1.0544999999999998 Q 4.5599296875 1.0439999999999998 4.5569296875 1.0349999999999997 L 4.4924296875 0.8669999999999998 L 4.0694296875 0.8669999999999998 L 4.0049296875 1.0349999999999997 Q 4.0019296875 1.0439999999999998 3.9914296875 1.0544999999999998 Q 3.9809296875 1.0649999999999997 3.9584296875 1.0649999999999997 L 3.8024296875 1.0649999999999997 M 4.1249296875 0.6734999999999998 L 4.4354296875 0.6734999999999998 L 4.2809296875000005 0.24149999999999971 L 4.1249296875 0.6734999999999998 M 5.324912109375 1.0799999999999996 Q 5.192912109375 1.0799999999999996 5.093912109375 1.0357499999999997 Q 4.994912109375 0.9914999999999997 4.940912109375 0.8992499999999997 Q 4.886912109375 0.8069999999999997 4.886912109375 0.6644999999999996 L 4.886912109375 0.05249999999999977 Q 4.886912109375 0.03599999999999981 4.897412109375 0.025499999999999634 Q 4.907912109375 0.01499999999999968 4.924412109375 0.01499999999999968 L 5.087912109375 0.01499999999999968 Q 5.104412109375 0.01499999999999968 5.114912109375 0.025499999999999634 Q 5.1254121093750005 0.03599999999999981 5.1254121093750005 0.05249999999999977 L 5.1254121093750005 0.6629999999999997 Q 5.1254121093750005 0.7739999999999998 5.177912109375 0.8279999999999997 Q 5.230412109375 0.8819999999999997 5.324912109375 0.8819999999999997 Q 5.417912109375 0.8819999999999997 5.470412109375 0.8279999999999997 Q 5.5229121093749995 0.7739999999999998 5.5229121093749995 0.6629999999999997 L 5.5229121093749995 0.05249999999999977 Q 5.5229121093749995 0.03599999999999981 5.534162109375 0.025499999999999634 Q 5.545412109375 0.01499999999999968 5.560412109375 0.01499999999999968 L 5.725412109375 0.01499999999999968 Q 5.740412109375 0.01499999999999968 5.750912109375 0.025499999999999634 Q 5.761412109375 0.03599999999999981 5.761412109375 0.05249999999999977 L 5.761412109375 0.6644999999999996 Q 5.761412109375 0.8069999999999997 5.707412109375 0.8992499999999997 Q 5.653412109375 0.9914999999999997 5.555912109375 1.0357499999999997 Q 5.458412109375 1.0799999999999996 5.324912109375 1.0799999999999996 M 6.0119033203125 1.0649999999999997 Q 5.9954033203125 1.0649999999999997 5.9849033203125 1.0544999999999998 Q 5.9744033203125 1.0439999999999998 5.9744033203125 1.0274999999999996 L 5.9744033203125 0.05249999999999977 Q 5.9744033203125 0.03599999999999981 5.9849033203125 0.025499999999999634 Q 5.9954033203125 0.01499999999999968 6.0119033203125 0.01499999999999968 L 6.4094033203125 0.01499999999999968 Q 6.5969033203125 0.01499999999999968 6.7049033203125 0.10124999999999973 Q 6.8129033203125005 0.18749999999999967 6.8129033203125005 0.3494999999999997 Q 6.8129033203125005 0.45899999999999974 6.7604033203125 0.5324999999999998 Q 6.7079033203125 0.6059999999999997 6.6194033203125 0.6419999999999997 L 6.8309033203125 1.0169999999999997 Q 6.8354033203124995 1.0259999999999998 6.8354033203124995 1.0334999999999996 Q 6.8354033203124995 1.0454999999999997 6.8264033203125 1.0552499999999998 Q 6.8174033203125 1.0649999999999997 6.8039033203125 1.0649999999999997 L 6.6374033203125 1.0649999999999997 Q 6.6104033203125 1.0649999999999997 6.5969033203125 1.0507499999999996 Q 6.5834033203125 1.0364999999999998 6.5774033203125 1.0244999999999997 L 6.3944033203125 0.6809999999999997 L 6.2129033203125 0.6809999999999997 L 6.2129033203125 1.0274999999999996 Q 6.2129033203125 1.0439999999999998 6.2024033203125 1.0544999999999998 Q 6.1919033203125 1.0649999999999997 6.1754033203125 1.0649999999999997 L 6.0119033203125 1.0649999999999997 M 6.2129033203125 0.4904999999999997 L 6.4049033203125 0.4904999999999997 Q 6.4874033203125 0.4904999999999997 6.5271533203125 0.45299999999999974 Q 6.5669033203125 0.41549999999999976 6.5669033203125 0.34799999999999975 Q 6.5669033203125 0.28049999999999975 6.5279033203125 0.24149999999999971 Q 6.4889033203125 0.20249999999999968 6.4049033203125 0.20249999999999968 L 6.2129033203125 0.20249999999999968 L 6.2129033203125 0.4904999999999997 M 6.93591357421875 1.0649999999999997 Q 6.92241357421875 1.0649999999999997 6.91341357421875 1.0552499999999998 Q 6.90441357421875 1.0454999999999997 6.90441357421875 1.0334999999999996 Q 6.90441357421875 1.0259999999999998 6.90591357421875 1.0199999999999998 L 7.26291357421875 0.05549999999999966 Q 7.26741357421875 0.0389999999999997 7.28091357421875 0.02699999999999969 Q 7.29441357421875 0.01499999999999968 7.31841357421875 0.01499999999999968 L 7.51041357421875 0.01499999999999968 Q 7.53441357421875 0.01499999999999968 7.54791357421875 0.02699999999999969 Q 7.56141357421875 0.0389999999999997 7.56591357421875 0.05549999999999966 L 7.92291357421875 1.0199999999999998 Q 7.92441357421875 1.0259999999999998 7.92441357421875 1.0334999999999996 Q 7.92441357421875 1.0454999999999997 7.91541357421875 1.0552499999999998 Q 7.90641357421875 1.0649999999999997 7.89291357421875 1.0649999999999997 L 7.73691357421875 1.0649999999999997 Q 7.71441357421875 1.0649999999999997 7.70391357421875 1.0544999999999998 Q 7.69341357421875 1.0439999999999998 7.69041357421875 1.0349999999999997 L 7.62591357421875 0.8669999999999998 L 7.20291357421875 0.8669999999999998 L 7.13841357421875 1.0349999999999997 Q 7.13541357421875 1.0439999999999998 7.12491357421875 1.0544999999999998 Q 7.11441357421875 1.0649999999999997 7.09191357421875 1.0649999999999997 L 6.93591357421875 1.0649999999999997 M 7.25841357421875 0.6734999999999998 L 7.56891357421875 0.6734999999999998 L 7.4144135742187505 0.24149999999999971 L 7.25841357421875 0.6734999999999998 M 8.0908828125 1.0649999999999997 Q 8.0743828125 1.0649999999999997 8.0638828125 1.0544999999999998 Q 8.0533828125 1.0439999999999998 8.0533828125 1.0274999999999996 L 8.0533828125 0.05249999999999977 Q 8.0533828125 0.03599999999999981 8.0638828125 0.025499999999999634 Q 8.0743828125 0.01499999999999968 8.0908828125 0.01499999999999968 L 8.2273828125 0.01499999999999968 Q 8.2498828125 0.01499999999999968 8.2603828125 0.025499999999999634 Q 8.2708828125 0.03599999999999981 8.2738828125 0.04199999999999959 L 8.6743828125 0.6674999999999998 L 8.6743828125 0.05249999999999977 Q 8.6743828125 0.03599999999999981 8.6848828125 0.025499999999999634 Q 8.6953828125 0.01499999999999968 8.7103828125 0.01499999999999968 L 8.8633828125 0.01499999999999968 Q 8.8798828125 0.01499999999999968 8.8903828125 0.025499999999999634 Q 8.9008828125 0.03599999999999981 8.9008828125 0.05249999999999977 L 8.9008828125 1.0274999999999996 Q 8.9008828125 1.0424999999999998 8.8903828125 1.0537499999999997 Q 8.8798828125 1.0649999999999997 8.8633828125 1.0649999999999997 L 8.7253828125 1.0649999999999997 Q 8.7028828125 1.0649999999999997 8.6931328125 1.0537499999999997 Q 8.6833828125 1.0424999999999998 8.6788828125 1.0379999999999998 L 8.2798828125 0.4319999999999997 L 8.2798828125 1.0274999999999996 Q 8.2798828125 1.0439999999999998 8.2693828125 1.0544999999999998 Q 8.2588828125 1.0649999999999997 8.2423828125 1.0649999999999997 L 8.0908828125 1.0649999999999997 M 9.39140185546875 1.0649999999999997 Q 9.37490185546875 1.0649999999999997 9.36440185546875 1.0544999999999998 Q 9.35390185546875 1.0439999999999998 9.35390185546875 1.0274999999999996 L 9.35390185546875 0.2234999999999997 L 9.08090185546875 0.2234999999999997 Q 9.06590185546875 0.2234999999999997 9.05540185546875 0.21299999999999975 Q 9.04490185546875 0.20249999999999968 9.04490185546875 0.18749999999999967 L 9.04490185546875 0.05249999999999977 Q 9.04490185546875 0.03599999999999981 9.05540185546875 0.025499999999999634 Q 9.06590185546875 0.01499999999999968 9.08090185546875 0.01499999999999968 L 9.86690185546875 0.01499999999999968 Q 9.88340185546875 0.01499999999999968 9.89390185546875 0.025499999999999634 Q 9.90440185546875 0.03599999999999981 9.90440185546875 0.05249999999999977 L 9.90440185546875 0.18749999999999967 Q 9.90440185546875 0.20249999999999968 9.89390185546875 0.21299999999999975 Q 9.88340185546875 0.2234999999999997 9.86690185546875 0.2234999999999997 L 9.59540185546875 0.2234999999999997 L 9.59540185546875 1.0274999999999996 Q 9.59540185546875 1.0439999999999998 9.58490185546875 1.0544999999999998 Q 9.57440185546875 1.0649999999999997 9.55790185546875 1.0649999999999997 L 9.39140185546875 1.0649999999999997 M 0.0495 2.4449999999999994 Q 0.036000000000000004 2.4449999999999994 0.027 2.4352499999999995 Q 0.018000000000000002 2.4254999999999995 0.018000000000000002 2.4134999999999995 Q 0.018000000000000002 2.4059999999999993 0.0195 2.3999999999999995 L 0.3765 1.4354999999999993 Q 0.381 1.4189999999999994 0.3945 1.4069999999999994 Q 0.40800000000000003 1.3949999999999994 0.432 1.3949999999999994 L 0.624 1.3949999999999994 Q 0.648 1.3949999999999994 0.6615 1.4069999999999994 Q 0.675 1.4189999999999994 0.6795 1.4354999999999993 L 1.0365 2.3999999999999995 Q 1.038 2.4059999999999993 1.038 2.4134999999999995 Q 1.038 2.4254999999999995 1.029 2.4352499999999995 Q 1.02 2.4449999999999994 1.0065 2.4449999999999994 L 0.8505 2.4449999999999994 Q 0.8280000000000001 2.4449999999999994 0.8175 2.4344999999999994 Q 0.807 2.4239999999999995 0.804 2.4149999999999996 L 0.7395 2.2469999999999994 L 0.3165 2.2469999999999994 L 0.252 2.4149999999999996 Q 0.249 2.4239999999999995 0.23850000000000002 2.4344999999999994 Q 0.228 2.4449999999999994 0.20550000000000002 2.4449999999999994 L 0.0495 2.4449999999999994 M 0.372 2.053499999999999 L 0.6825 2.053499999999999 L 0.528 1.6214999999999993 L 0.372 2.053499999999999 M 1.295946533203125 2.4449999999999994 Q 1.271946533203125 2.4449999999999994 1.257696533203125 2.4314999999999993 Q 1.243446533203125 2.4179999999999993 1.240446533203125 2.3984999999999994 L 1.069446533203125 1.4369999999999994 Q 1.067946533203125 1.4339999999999993 1.067946533203125 1.4309999999999994 Q 1.067946533203125 1.4279999999999993 1.067946533203125 1.4264999999999994 Q 1.067946533203125 1.4144999999999994 1.076946533203125 1.4047499999999993 Q 1.085946533203125 1.3949999999999994 1.099446533203125 1.3949999999999994 L 1.2569465332031249 1.3949999999999994 Q 1.295946533203125 1.3949999999999994 1.300446533203125 1.4264999999999994 L 1.412946533203125 2.0609999999999995 L 1.534446533203125 1.6664999999999994 Q 1.538946533203125 1.6544999999999994 1.5494465332031249 1.6409999999999993 Q 1.559946533203125 1.6274999999999995 1.583946533203125 1.6274999999999995 L 1.6784465332031249 1.6274999999999995 Q 1.702446533203125 1.6274999999999995 1.712946533203125 1.6409999999999993 Q 1.723446533203125 1.6544999999999994 1.726446533203125 1.6664999999999994 L 1.8494465332031251 2.0594999999999994 L 1.960446533203125 1.4264999999999994 Q 1.964946533203125 1.3949999999999994 2.0054465332031253 1.3949999999999994 L 2.162946533203125 1.3949999999999994 Q 2.176446533203125 1.3949999999999994 2.185446533203125 1.4047499999999993 Q 2.1944465332031253 1.4144999999999994 2.1944465332031253 1.4264999999999994 Q 2.1944465332031253 1.4279999999999993 2.1944465332031253 1.4309999999999994 Q 2.1944465332031253 1.4339999999999993 2.1929465332031253 1.4369999999999994 L 2.021946533203125 2.3984999999999994 Q 2.018946533203125 2.4179999999999993 2.0046965332031252 2.4314999999999993 Q 1.9904465332031251 2.4449999999999994 1.9664465332031251 2.4449999999999994 L 1.844946533203125 2.4449999999999994 Q 1.820946533203125 2.4449999999999994 1.808196533203125 2.4322499999999994 Q 1.7954465332031249 2.4194999999999993 1.7909465332031251 2.4059999999999993 L 1.630446533203125 1.9409999999999994 L 1.471446533203125 2.4059999999999993 Q 1.466946533203125 2.4194999999999993 1.454196533203125 2.4322499999999994 Q 1.441446533203125 2.4449999999999994 1.4159465332031251 2.4449999999999994 L 1.295946533203125 2.4449999999999994 M 2.71344140625 2.4449999999999994 Q 2.69694140625 2.4449999999999994 2.68644140625 2.4344999999999994 Q 2.67594140625 2.4239999999999995 2.67594140625 2.4074999999999993 L 2.67594140625 1.4324999999999994 Q 2.67594140625 1.4159999999999995 2.68644140625 1.4054999999999993 Q 2.69694140625 1.3949999999999994 2.71344140625 1.3949999999999994 L 3.15894140625 1.3949999999999994 Q 3.28344140625 1.3949999999999994 3.36294140625 1.4309999999999994 Q 3.44244140625 1.4669999999999994 3.48069140625 1.5329999999999995 Q 3.51894140625 1.5989999999999993 3.51894140625 1.6874999999999993 Q 3.51894140625 1.7429999999999994 3.49869140625 1.7849999999999993 Q 3.47844140625 1.8269999999999995 3.4491914062499998 1.8539999999999994 Q 3.41994140625 1.8809999999999993 3.3929414062500003 1.8944999999999994 Q 3.45144140625 1.9214999999999995 3.4956914062499997 1.9837499999999995 Q 3.53994140625 2.0459999999999994 3.53994140625 2.1314999999999995 Q 3.53994140625 2.2259999999999995 3.49794140625 2.2964999999999995 Q 3.45594140625 2.3669999999999995 3.37344140625 2.4059999999999993 Q 3.29094140625 2.4449999999999994 3.17244140625 2.4449999999999994 L 2.71344140625 2.4449999999999994 M 2.91444140625 2.2694999999999994 L 3.1439414062499997 2.2694999999999994 Q 3.21744140625 2.2694999999999994 3.25494140625 2.228249999999999 Q 3.29244140625 2.1869999999999994 3.29244140625 2.1299999999999994 Q 3.29244140625 2.0714999999999995 3.25419140625 2.0317499999999993 Q 3.21594140625 1.9919999999999993 3.1439414062499997 1.9919999999999993 L 2.91444140625 1.9919999999999993 L 2.91444140625 2.2694999999999994 M 2.91444140625 1.8194999999999992 L 3.13044140625 1.8194999999999992 Q 3.20094140625 1.8194999999999992 3.23619140625 1.7842499999999992 Q 3.27144140625 1.7489999999999992 3.27144140625 1.6934999999999993 Q 3.27144140625 1.6379999999999995 3.23619140625 1.6042499999999995 Q 3.20094140625 1.5704999999999993 3.13044140625 1.5704999999999993 L 2.91444140625 1.5704999999999993 L 2.91444140625 1.8194999999999992 M 3.755952392578125 2.4449999999999994 Q 3.739452392578125 2.4449999999999994 3.728952392578125 2.4344999999999994 Q 3.718452392578125 2.4239999999999995 3.718452392578125 2.4074999999999993 L 3.718452392578125 1.4324999999999994 Q 3.718452392578125 1.4159999999999995 3.728952392578125 1.4054999999999993 Q 3.739452392578125 1.3949999999999994 3.755952392578125 1.3949999999999994 L 3.925452392578125 1.3949999999999994 Q 3.9419523925781252 1.3949999999999994 3.952452392578125 1.4054999999999993 Q 3.962952392578125 1.4159999999999995 3.962952392578125 1.4324999999999994 L 3.962952392578125 2.4074999999999993 Q 3.962952392578125 2.4239999999999995 3.952452392578125 2.4344999999999994 Q 3.9419523925781252 2.4449999999999994 3.925452392578125 2.4449999999999994 L 3.755952392578125 2.4449999999999994 M 4.56291357421875 2.4599999999999995 Q 4.41891357421875 2.4599999999999995 4.32216357421875 2.4179999999999993 Q 4.22541357421875 2.3759999999999994 4.17591357421875 2.3084999999999996 Q 4.12641357421875 2.240999999999999 4.12341357421875 2.1644999999999994 Q 4.12341357421875 2.1524999999999994 4.13241357421875 2.1427499999999995 Q 4.14141357421875 2.1329999999999996 4.15491357421875 2.1329999999999996 L 4.31541357421875 2.1329999999999996 Q 4.33491357421875 2.1329999999999996 4.34541357421875 2.1412499999999994 Q 4.35591357421875 2.1494999999999993 4.36491357421875 2.1614999999999993 Q 4.37541357421875 2.1869999999999994 4.39866357421875 2.2109999999999994 Q 4.42191357421875 2.2349999999999994 4.46241357421875 2.2507499999999996 Q 4.50291357421875 2.2664999999999993 4.56291357421875 2.2664999999999993 Q 4.66041357421875 2.2664999999999993 4.70916357421875 2.2349999999999994 Q 4.75791357421875 2.2034999999999996 4.75791357421875 2.1494999999999993 Q 4.75791357421875 2.110499999999999 4.73166357421875 2.0864999999999996 Q 4.70541357421875 2.0624999999999996 4.6491635742187505 2.0429999999999993 Q 4.59291357421875 2.0234999999999994 4.49991357421875 2.0009999999999994 Q 4.38741357421875 1.9769999999999994 4.30866357421875 1.9387499999999993 Q 4.22991357421875 1.9004999999999994 4.19016357421875 1.8397499999999993 Q 4.15041357421875 1.7789999999999995 4.15041357421875 1.6889999999999994 Q 4.15041357421875 1.5989999999999993 4.19991357421875 1.5292499999999993 Q 4.24941357421875 1.4594999999999994 4.33941357421875 1.4197499999999994 Q 4.42941357421875 1.3799999999999994 4.55391357421875 1.3799999999999994 Q 4.65441357421875 1.3799999999999994 4.73166357421875 1.4069999999999994 Q 4.80891357421875 1.4339999999999993 4.86066357421875 1.4774999999999994 Q 4.91241357421875 1.5209999999999995 4.93941357421875 1.5704999999999993 Q 4.96641357421875 1.6199999999999992 4.96791357421875 1.6664999999999994 Q 4.96791357421875 1.6784999999999992 4.95891357421875 1.6882499999999994 Q 4.94991357421875 1.6979999999999995 4.93641357421875 1.6979999999999995 L 4.76841357421875 1.6979999999999995 Q 4.75341357421875 1.6979999999999995 4.74141357421875 1.6919999999999993 Q 4.72941357421875 1.6859999999999995 4.72191357421875 1.6709999999999994 Q 4.71291357421875 1.6319999999999992 4.66866357421875 1.6027499999999995 Q 4.6244135742187495 1.5734999999999992 4.55391357421875 1.5734999999999992 Q 4.48041357421875 1.5734999999999992 4.43766357421875 1.6004999999999994 Q 4.39491357421875 1.6274999999999995 4.39491357421875 1.6829999999999994 Q 4.39491357421875 1.7189999999999994 4.41666357421875 1.7437499999999995 Q 4.43841357421875 1.7684999999999995 4.49016357421875 1.7872499999999993 Q 4.54191357421875 1.8059999999999994 4.62741357421875 1.8284999999999993 Q 4.75941357421875 1.8554999999999993 4.84191357421875 1.8929999999999993 Q 4.92441357421875 1.9304999999999994 4.96341357421875 1.9897499999999995 Q 5.00241357421875 2.0489999999999995 5.00241357421875 2.1389999999999993 Q 5.00241357421875 2.2394999999999996 4.94616357421875 2.311499999999999 Q 4.88991357421875 2.3834999999999993 4.79166357421875 2.4217499999999994 Q 4.69341357421875 2.4599999999999995 4.56291357421875 2.4599999999999995 M 5.2003798828125 2.4449999999999994 Q 5.1853798828125 2.4449999999999994 5.1741298828125 2.4344999999999994 Q 5.1628798828125 2.4239999999999995 5.1628798828125 2.4074999999999993 L 5.1628798828125 1.4324999999999994 Q 5.1628798828125 1.4159999999999995 5.1741298828125 1.4054999999999993 Q 5.1853798828125 1.3949999999999994 5.2003798828125 1.3949999999999994 L 5.3398798828125 1.3949999999999994 Q 5.3623798828125 1.3949999999999994 5.3736298828125 1.4069999999999994 Q 5.3848798828125 1.4189999999999994 5.3893798828125 1.4249999999999994 L 5.6653798828125 1.9334999999999993 L 5.9443798828125 1.4249999999999994 Q 5.9473798828125 1.4189999999999994 5.9586298828125 1.4069999999999994 Q 5.9698798828125 1.3949999999999994 5.9923798828125 1.3949999999999994 L 6.1318798828125 1.3949999999999994 Q 6.1483798828125 1.3949999999999994 6.1588798828125 1.4054999999999993 Q 6.1693798828125 1.4159999999999995 6.1693798828125 1.4324999999999994 L 6.1693798828125 2.4074999999999993 Q 6.1693798828125 2.4239999999999995 6.1588798828125 2.4344999999999994 Q 6.1483798828125 2.4449999999999994 6.1318798828125 2.4449999999999994 L 5.9788798828125 2.4449999999999994 Q 5.9638798828125 2.4449999999999994 5.9533798828125 2.4344999999999994 Q 5.9428798828125 2.4239999999999995 5.9428798828125 2.4074999999999993 L 5.9428798828125 1.8014999999999994 L 5.7523798828125 2.158499999999999 Q 5.7448798828125 2.1719999999999993 5.7328798828125 2.182499999999999 Q 5.7208798828125005 2.1929999999999996 5.7013798828125 2.1929999999999996 L 5.6308798828125 2.1929999999999996 Q 5.6113798828125 2.1929999999999996 5.5993798828125 2.182499999999999 Q 5.5873798828125 2.1719999999999993 5.5798798828125005 2.158499999999999 L 5.3893798828125 1.8014999999999994 L 5.3893798828125 2.4074999999999993 Q 5.3893798828125 2.4239999999999995 5.3788798828125 2.4344999999999994 Q 5.3683798828125 2.4449999999999994 5.3533798828125 2.4449999999999994 L 5.2003798828125 2.4449999999999994 M 6.42883447265625 2.4449999999999994 Q 6.41233447265625 2.4449999999999994 6.40183447265625 2.4344999999999994 Q 6.39133447265625 2.4239999999999995 6.39133447265625 2.4074999999999993 L 6.39133447265625 1.4324999999999994 Q 6.39133447265625 1.4159999999999995 6.40183447265625 1.4054999999999993 Q 6.41233447265625 1.3949999999999994 6.42883447265625 1.3949999999999994 L 6.59833447265625 1.3949999999999994 Q 6.61483447265625 1.3949999999999994 6.62533447265625 1.4054999999999993 Q 6.63583447265625 1.4159999999999995 6.63583447265625 1.4324999999999994 L 6.63583447265625 2.4074999999999993 Q 6.63583447265625 2.4239999999999995 6.62533447265625 2.4344999999999994 Q 6.61483447265625 2.4449999999999994 6.59833447265625 2.4449999999999994 L 6.42883447265625 2.4449999999999994 M 6.895295654296875 2.4449999999999994 Q 6.878795654296875 2.4449999999999994 6.868295654296875 2.4344999999999994 Q 6.857795654296875 2.4239999999999995 6.857795654296875 2.4074999999999993 L 6.857795654296875 1.4324999999999994 Q 6.857795654296875 1.4159999999999995 6.868295654296875 1.4054999999999993 Q 6.878795654296875 1.3949999999999994 6.895295654296875 1.3949999999999994 L 7.061795654296875 1.3949999999999994 Q 7.078295654296875 1.3949999999999994 7.088795654296875 1.4054999999999993 Q 7.099295654296875 1.4159999999999995 7.099295654296875 1.4324999999999994 L 7.099295654296875 2.2439999999999993 L 7.564295654296875 2.2439999999999993 Q 7.580795654296875 2.2439999999999993 7.591295654296875 2.2544999999999993 Q 7.601795654296875 2.2649999999999992 7.601795654296875 2.2814999999999994 L 7.601795654296875 2.4074999999999993 Q 7.601795654296875 2.4239999999999995 7.591295654296875 2.4344999999999994 Q 7.580795654296875 2.4449999999999994 7.564295654296875 2.4449999999999994 L 6.895295654296875 2.4449999999999994 M 7.777314697265625 2.4449999999999994 Q 7.760814697265625 2.4449999999999994 7.750314697265625 2.4344999999999994 Q 7.739814697265625 2.4239999999999995 7.739814697265625 2.4074999999999993 L 7.739814697265625 1.4324999999999994 Q 7.739814697265625 1.4159999999999995 7.750314697265625 1.4054999999999993 Q 7.760814697265625 1.3949999999999994 7.777314697265625 1.3949999999999994 L 7.943814697265625 1.3949999999999994 Q 7.960314697265625 1.3949999999999994 7.970814697265625 1.4054999999999993 Q 7.981314697265625 1.4159999999999995 7.981314697265625 1.4324999999999994 L 7.981314697265625 2.2439999999999993 L 8.446314697265626 2.2439999999999993 Q 8.462814697265625 2.2439999999999993 8.473314697265625 2.2544999999999993 Q 8.483814697265625 2.2649999999999992 8.483814697265625 2.2814999999999994 L 8.483814697265625 2.4074999999999993 Q 8.483814697265625 2.4239999999999995 8.473314697265625 2.4344999999999994 Q 8.462814697265625 2.4449999999999994 8.446314697265626 2.4449999999999994 L 7.777314697265625 2.4449999999999994 M 8.560333740234375 2.4449999999999994 Q 8.546833740234375 2.4449999999999994 8.537833740234374 2.4352499999999995 Q 8.528833740234376 2.4254999999999995 8.528833740234376 2.4134999999999995 Q 8.528833740234376 2.4059999999999993 8.530333740234376 2.3999999999999995 L 8.887333740234375 1.4354999999999993 Q 8.891833740234375 1.4189999999999994 8.905333740234376 1.4069999999999994 Q 8.918833740234374 1.3949999999999994 8.942833740234375 1.3949999999999994 L 9.134833740234376 1.3949999999999994 Q 9.158833740234375 1.3949999999999994 9.172333740234375 1.4069999999999994 Q 9.185833740234376 1.4189999999999994 9.190333740234376 1.4354999999999993 L 9.547333740234375 2.3999999999999995 Q 9.548833740234375 2.4059999999999993 9.548833740234375 2.4134999999999995 Q 9.548833740234375 2.4254999999999995 9.539833740234375 2.4352499999999995 Q 9.530833740234375 2.4449999999999994 9.517333740234374 2.4449999999999994 L 9.361333740234375 2.4449999999999994 Q 9.338833740234374 2.4449999999999994 9.328333740234376 2.4344999999999994 Q 9.317833740234375 2.4239999999999995 9.314833740234375 2.4149999999999996 L 9.250333740234375 2.2469999999999994 L 8.827333740234375 2.2469999999999994 L 8.762833740234376 2.4149999999999996 Q 8.759833740234376 2.4239999999999995 8.749333740234375 2.4344999999999994 Q 8.738833740234375 2.4449999999999994 8.716333740234376 2.4449999999999994 L 8.560333740234375 2.4449999999999994 M 8.882833740234375 2.053499999999999 L 9.193333740234374 2.053499999999999 L 9.038833740234375 1.6214999999999993 L 8.882833740234375 2.053499999999999 M 9.715302978515625 2.4449999999999994 Q 9.698802978515625 2.4449999999999994 9.688302978515624 2.4344999999999994 Q 9.677802978515626 2.4239999999999995 9.677802978515626 2.4074999999999993 L 9.677802978515626 1.4324999999999994 Q 9.677802978515626 1.4159999999999995 9.688302978515624 1.4054999999999993 Q 9.698802978515625 1.3949999999999994 9.715302978515625 1.3949999999999994 L 9.878802978515624 1.3949999999999994 Q 9.895302978515625 1.3949999999999994 9.905802978515625 1.4054999999999993 Q 9.916302978515626 1.4159999999999995 9.916302978515626 1.4324999999999994 L 9.916302978515626 1.8074999999999992 L 10.322802978515625 1.8074999999999992 L 10.322802978515625 1.4324999999999994 Q 10.322802978515625 1.4159999999999995 10.333302978515626 1.4054999999999993 Q 10.343802978515624 1.3949999999999994 10.360302978515625 1.3949999999999994 L 10.523802978515626 1.3949999999999994 Q 10.540302978515625 1.3949999999999994 10.550802978515625 1.4054999999999993 Q 10.561302978515625 1.4159999999999995 10.561302978515625 1.4324999999999994 L 10.561302978515625 2.4074999999999993 Q 10.561302978515625 2.4239999999999995 10.550802978515625 2.4344999999999994 Q 10.540302978515625 2.4449999999999994 10.523802978515626 2.4449999999999994 L 10.360302978515625 2.4449999999999994 Q 10.343802978515624 2.4449999999999994 10.333302978515626 2.4344999999999994 Q 10.322802978515625 2.4239999999999995 10.322802978515625 2.4074999999999993 L 10.322802978515625 2.0204999999999993 L 9.916302978515626 2.0204999999999993 L 9.916302978515626 2.4074999999999993 Q 9.916302978515626 2.4239999999999995 9.905802978515625 2.4344999999999994 Q 9.895302978515625 2.4449999999999994 9.878802978515624 2.4449999999999994 L 9.715302978515625 2.4449999999999994" fill="#431a10" fill-rule="nonzero"></path></g><g><path d=" M 0.0825 3.334874999999999 Q 0.07425 3.334874999999999 0.06975 3.3299999999999987 Q 0.06525 3.325124999999999 0.06525 3.3176249999999987 L 0.06525 2.827874999999999 Q 0.06525 2.819624999999999 0.06975 2.8147499999999988 Q 0.07425 2.809874999999999 0.0825 2.809874999999999 L 0.28800000000000003 2.809874999999999 Q 0.34425 2.809874999999999 0.379875 2.828249999999999 Q 0.41550000000000004 2.846624999999999 0.432375 2.878124999999999 Q 0.44925 2.909624999999999 0.44925 2.948624999999999 Q 0.44925 2.9793749999999988 0.439125 3.0014999999999987 Q 0.429 3.023624999999999 0.41400000000000003 3.0374999999999988 Q 0.399 3.051374999999999 0.38475 3.0588749999999987 Q 0.41400000000000003 3.0731249999999988 0.436875 3.105374999999999 Q 0.45975 3.137624999999999 0.45975 3.183374999999999 Q 0.45975 3.2246249999999987 0.441 3.2591249999999987 Q 0.42225 3.293624999999999 0.385125 3.314249999999999 Q 0.34800000000000003 3.334874999999999 0.294 3.334874999999999 L 0.0825 3.334874999999999 M 0.13875 3.274124999999999 L 0.28425 3.274124999999999 Q 0.33225 3.274124999999999 0.3585 3.2478749999999987 Q 0.38475 3.221624999999999 0.38475 3.183374999999999 Q 0.38475 3.143624999999999 0.3585 3.117749999999999 Q 0.33225 3.091874999999999 0.28425 3.091874999999999 L 0.13875 3.091874999999999 L 0.13875 3.274124999999999 M 0.13875 3.031874999999999 L 0.27675 3.031874999999999 Q 0.32475 3.031874999999999 0.34950000000000003 3.009749999999999 Q 0.37425 2.987624999999999 0.37425 2.949374999999999 Q 0.37425 2.911124999999999 0.34950000000000003 2.890874999999999 Q 0.32475 2.870624999999999 0.27675 2.870624999999999 L 0.13875 2.870624999999999 L 0.13875 3.031874999999999 M 0.5846473388671874 3.334874999999999 Q 0.5763973388671875 3.334874999999999 0.5718973388671874 3.3299999999999987 Q 0.5673973388671875 3.325124999999999 0.5673973388671875 3.3176249999999987 L 0.5673973388671875 2.8271249999999988 Q 0.5673973388671875 2.819624999999999 0.5718973388671874 2.8147499999999988 Q 0.5763973388671875 2.809874999999999 0.5846473388671874 2.809874999999999 L 0.6243973388671874 2.809874999999999 Q 0.6326473388671874 2.809874999999999 0.6371473388671874 2.8147499999999988 Q 0.6416473388671875 2.819624999999999 0.6416473388671875 2.8271249999999988 L 0.6416473388671875 3.3176249999999987 Q 0.6416473388671875 3.325124999999999 0.6371473388671874 3.3299999999999987 Q 0.6326473388671874 3.334874999999999 0.6243973388671874 3.334874999999999 L 0.5846473388671874 3.334874999999999 M 0.7905300292968749 3.334874999999999 Q 0.7822800292968749 3.334874999999999 0.7777800292968748 3.3299999999999987 Q 0.7732800292968749 3.325124999999999 0.7732800292968749 3.3176249999999987 L 0.7732800292968749 2.827874999999999 Q 0.7732800292968749 2.819624999999999 0.7777800292968748 2.8147499999999988 Q 0.7822800292968749 2.809874999999999 0.7905300292968749 2.809874999999999 L 1.1002800292968749 2.809874999999999 Q 1.108530029296875 2.809874999999999 1.113030029296875 2.8147499999999988 Q 1.1175300292968748 2.819624999999999 1.1175300292968748 2.827874999999999 L 1.1175300292968748 2.856374999999999 Q 1.1175300292968748 2.864624999999999 1.113030029296875 2.869124999999999 Q 1.108530029296875 2.8736249999999988 1.1002800292968749 2.8736249999999988 L 0.8452800292968748 2.8736249999999988 L 0.8452800292968748 3.0378749999999988 L 1.083780029296875 3.0378749999999988 Q 1.092030029296875 3.0378749999999988 1.096530029296875 3.042749999999999 Q 1.1010300292968749 3.047624999999999 1.1010300292968749 3.055874999999999 L 1.1010300292968749 3.0836249999999987 Q 1.1010300292968749 3.091124999999999 1.096530029296875 3.0959999999999988 Q 1.092030029296875 3.100874999999999 1.083780029296875 3.100874999999999 L 0.8452800292968748 3.100874999999999 L 0.8452800292968748 3.2711249999999987 L 1.1062800292968749 3.2711249999999987 Q 1.114530029296875 3.2711249999999987 1.119030029296875 3.275624999999999 Q 1.1235300292968748 3.280124999999999 1.1235300292968748 3.288374999999999 L 1.1235300292968748 3.3176249999999987 Q 1.1235300292968748 3.325124999999999 1.119030029296875 3.3299999999999987 Q 1.114530029296875 3.334874999999999 1.1062800292968749 3.334874999999999 L 0.7905300292968749 3.334874999999999 M 1.2461685791015622 3.334874999999999 Q 1.237918579101562 3.334874999999999 1.2334185791015622 3.3299999999999987 Q 1.2289185791015622 3.325124999999999 1.2289185791015622 3.3176249999999987 L 1.2289185791015622 2.827874999999999 Q 1.2289185791015622 2.819624999999999 1.2334185791015622 2.8147499999999988 Q 1.237918579101562 2.809874999999999 1.2461685791015622 2.809874999999999 L 1.2806685791015622 2.809874999999999 Q 1.289668579101562 2.809874999999999 1.2941685791015622 2.813999999999999 Q 1.2986685791015622 2.818124999999999 1.2994185791015622 2.820374999999999 L 1.548418579101562 3.202874999999999 L 1.548418579101562 2.827874999999999 Q 1.548418579101562 2.819624999999999 1.5529185791015623 2.8147499999999988 Q 1.5574185791015622 2.809874999999999 1.5656685791015623 2.809874999999999 L 1.6016685791015621 2.809874999999999 Q 1.6099185791015622 2.809874999999999 1.6147935791015622 2.8147499999999988 Q 1.6196685791015621 2.819624999999999 1.6196685791015621 2.827874999999999 L 1.6196685791015621 3.316874999999999 Q 1.6196685791015621 3.324374999999999 1.6147935791015622 3.3296249999999987 Q 1.6099185791015622 3.334874999999999 1.6024185791015622 3.334874999999999 L 1.5664185791015621 3.334874999999999 Q 1.5581685791015623 3.334874999999999 1.5540435791015623 3.3303749999999988 Q 1.5499185791015622 3.325874999999999 1.548418579101562 3.324374999999999 L 1.3001685791015622 2.945624999999999 L 1.3001685791015622 3.3176249999999987 Q 1.3001685791015622 3.325124999999999 1.2952935791015623 3.3299999999999987 Q 1.290418579101562 3.334874999999999 1.2821685791015622 3.334874999999999 L 1.2461685791015622 3.334874999999999 M 1.9534204101562498 3.334874999999999 Q 1.9459204101562497 3.334874999999999 1.9410454101562498 3.3299999999999987 Q 1.9361704101562498 3.325124999999999 1.9361704101562498 3.3176249999999987 L 1.9361704101562498 2.827874999999999 Q 1.9361704101562498 2.819624999999999 1.9410454101562498 2.8147499999999988 Q 1.9459204101562497 2.809874999999999 1.9534204101562498 2.809874999999999 L 1.9909204101562499 2.809874999999999 Q 1.9999204101562498 2.809874999999999 2.00442041015625 2.814374999999999 Q 2.0089204101562497 2.818874999999999 2.0104204101562497 2.821874999999999 L 2.16867041015625 3.124874999999999 L 2.32842041015625 2.821874999999999 Q 2.32992041015625 2.818874999999999 2.33404541015625 2.814374999999999 Q 2.3381704101562497 2.809874999999999 2.3471704101562496 2.809874999999999 L 2.3839204101562497 2.809874999999999 Q 2.3921704101562495 2.809874999999999 2.3970454101562497 2.8147499999999988 Q 2.40192041015625 2.819624999999999 2.40192041015625 2.827874999999999 L 2.40192041015625 3.3176249999999987 Q 2.40192041015625 3.325124999999999 2.3970454101562497 3.3299999999999987 Q 2.3921704101562495 3.334874999999999 2.3839204101562497 3.334874999999999 L 2.3471704101562496 3.334874999999999 Q 2.3396704101562498 3.334874999999999 2.33479541015625 3.3299999999999987 Q 2.32992041015625 3.325124999999999 2.32992041015625 3.3176249999999987 L 2.32992041015625 2.948624999999999 L 2.2046704101562495 3.193124999999999 Q 2.20167041015625 3.2006249999999987 2.1956704101562496 3.204749999999999 Q 2.18967041015625 3.208874999999999 2.18067041015625 3.208874999999999 L 2.15742041015625 3.208874999999999 Q 2.1476704101562496 3.208874999999999 2.14242041015625 3.204749999999999 Q 2.1371704101562496 3.2006249999999987 2.13342041015625 3.193124999999999 L 2.0074204101562496 2.948624999999999 L 2.0074204101562496 3.3176249999999987 Q 2.0074204101562496 3.325124999999999 2.00254541015625 3.3299999999999987 Q 1.9976704101562497 3.334874999999999 1.9901704101562498 3.334874999999999 L 1.9534204101562498 3.334874999999999 M 2.497550170898437 3.334874999999999 Q 2.4915501708984373 3.334874999999999 2.487050170898437 3.3303749999999988 Q 2.4825501708984374 3.325874999999999 2.4825501708984374 3.319874999999999 Q 2.4825501708984374 3.316124999999999 2.4833001708984375 3.311624999999999 L 2.6693001708984374 2.8263749999999987 Q 2.6723001708984375 2.818874999999999 2.6775501708984373 2.814374999999999 Q 2.6828001708984375 2.809874999999999 2.6933001708984374 2.809874999999999 L 2.744300170898437 2.809874999999999 Q 2.754800170898437 2.809874999999999 2.7600501708984373 2.814374999999999 Q 2.7653001708984375 2.818874999999999 2.768300170898437 2.8263749999999987 L 2.9535501708984375 3.311624999999999 Q 2.955050170898437 3.316124999999999 2.955050170898437 3.319874999999999 Q 2.955050170898437 3.325874999999999 2.9505501708984374 3.3303749999999988 Q 2.9460501708984372 3.334874999999999 2.9400501708984375 3.334874999999999 L 2.9018001708984373 3.334874999999999 Q 2.8928001708984374 3.334874999999999 2.8886751708984373 3.3303749999999988 Q 2.884550170898437 3.325874999999999 2.8830501708984375 3.322124999999999 L 2.8418001708984373 3.215624999999999 L 2.5958001708984373 3.215624999999999 L 2.5545501708984375 3.322124999999999 Q 2.5538001708984375 3.325874999999999 2.5493001708984373 3.3303749999999988 Q 2.544800170898437 3.334874999999999 2.5358001708984372 3.334874999999999 L 2.497550170898437 3.334874999999999 M 2.6175501708984372 3.151124999999999 L 2.8200501708984373 3.151124999999999 L 2.7188001708984375 2.8848749999999987 L 2.6175501708984372 3.151124999999999 M 3.053662353515625 3.334874999999999 Q 3.045412353515625 3.334874999999999 3.040912353515625 3.3299999999999987 Q 3.0364123535156247 3.325124999999999 3.0364123535156247 3.3176249999999987 L 3.0364123535156247 2.827874999999999 Q 3.0364123535156247 2.819624999999999 3.040912353515625 2.8147499999999988 Q 3.045412353515625 2.809874999999999 3.053662353515625 2.809874999999999 L 3.088162353515625 2.809874999999999 Q 3.0971623535156247 2.809874999999999 3.101662353515625 2.813999999999999 Q 3.106162353515625 2.818124999999999 3.1069123535156247 2.820374999999999 L 3.355912353515625 3.202874999999999 L 3.355912353515625 2.827874999999999 Q 3.355912353515625 2.819624999999999 3.360412353515625 2.8147499999999988 Q 3.3649123535156247 2.809874999999999 3.373162353515625 2.809874999999999 L 3.409162353515625 2.809874999999999 Q 3.417412353515625 2.809874999999999 3.4222873535156246 2.8147499999999988 Q 3.427162353515625 2.819624999999999 3.427162353515625 2.827874999999999 L 3.427162353515625 3.316874999999999 Q 3.427162353515625 3.324374999999999 3.4222873535156246 3.3296249999999987 Q 3.417412353515625 3.334874999999999 3.409912353515625 3.334874999999999 L 3.373912353515625 3.334874999999999 Q 3.3656623535156247 3.334874999999999 3.361537353515625 3.3303749999999988 Q 3.357412353515625 3.325874999999999 3.355912353515625 3.324374999999999 L 3.1076623535156247 2.945624999999999 L 3.1076623535156247 3.3176249999999987 Q 3.1076623535156247 3.325124999999999 3.102787353515625 3.3299999999999987 Q 3.0979123535156248 3.334874999999999 3.089662353515625 3.334874999999999 L 3.053662353515625 3.334874999999999 M 3.7500428466796873 3.3423749999999988 Q 3.6832928466796875 3.3423749999999988 3.6371678466796875 3.3176249999999987 Q 3.5910428466796875 3.292874999999999 3.5666678466796875 3.2478749999999987 Q 3.5422928466796875 3.202874999999999 3.5392928466796874 3.1421249999999987 Q 3.5385428466796873 3.109124999999999 3.5385428466796873 3.0719999999999987 Q 3.5385428466796873 3.034874999999999 3.5392928466796874 3.001124999999999 Q 3.5422928466796875 2.940374999999999 3.5666678466796875 2.8957499999999987 Q 3.5910428466796875 2.851124999999999 3.6375428466796875 2.8267499999999988 Q 3.6840428466796875 2.8023749999999987 3.7500428466796873 2.8023749999999987 Q 3.8025428466796876 2.8023749999999987 3.8415428466796873 2.817374999999999 Q 3.8805428466796874 2.832374999999999 3.9056678466796875 2.855249999999999 Q 3.9307928466796875 2.878124999999999 3.9431678466796876 2.902874999999999 Q 3.9555428466796876 2.927624999999999 3.9562928466796876 2.946374999999999 Q 3.9570428466796876 2.953124999999999 3.9525428466796875 2.957249999999999 Q 3.9480428466796873 2.961374999999999 3.9405428466796875 2.961374999999999 L 3.8962928466796876 2.961374999999999 Q 3.8887928466796873 2.961374999999999 3.8854178466796876 2.958374999999999 Q 3.8820428466796875 2.9553749999999988 3.8790428466796874 2.947874999999999 Q 3.8722928466796875 2.928374999999999 3.8569178466796874 2.909624999999999 Q 3.8415428466796873 2.890874999999999 3.8156678466796876 2.878499999999999 Q 3.7897928466796875 2.866124999999999 3.7500428466796873 2.866124999999999 Q 3.6900428466796873 2.866124999999999 3.6536678466796872 2.898374999999999 Q 3.617292846679687 2.930624999999999 3.6142928466796875 3.004874999999999 Q 3.6120428466796874 3.071624999999999 3.6142928466796875 3.138374999999999 Q 3.617292846679687 3.2133749999999988 3.6540428466796873 3.245999999999999 Q 3.6907928466796873 3.278624999999999 3.7500428466796873 3.278624999999999 Q 3.7897928466796875 3.278624999999999 3.8209178466796874 3.263624999999999 Q 3.852042846679687 3.2486249999999988 3.8700428466796875 3.218249999999999 Q 3.8880428466796872 3.187874999999999 3.8880428466796872 3.140624999999999 L 3.8880428466796872 3.109124999999999 L 3.7755428466796874 3.109124999999999 Q 3.7680428466796876 3.109124999999999 3.7631678466796874 3.104249999999999 Q 3.758292846679687 3.099374999999999 3.758292846679687 3.091124999999999 L 3.758292846679687 3.067124999999999 Q 3.758292846679687 3.0588749999999987 3.7631678466796874 3.053999999999999 Q 3.7680428466796876 3.0491249999999988 3.7755428466796874 3.0491249999999988 L 3.945042846679687 3.0491249999999988 Q 3.9532928466796875 3.0491249999999988 3.9577928466796872 3.053999999999999 Q 3.9622928466796874 3.0588749999999987 3.9622928466796874 3.067124999999999 L 3.9622928466796874 3.139124999999999 Q 3.9622928466796874 3.2006249999999987 3.9371678466796873 3.246374999999999 Q 3.9120428466796873 3.292124999999999 3.8640428466796872 3.3172499999999987 Q 3.8160428466796876 3.3423749999999988 3.7500428466796873 3.3423749999999988 M 4.087894775390624 3.334874999999999 Q 4.079644775390625 3.334874999999999 4.0751447753906245 3.3299999999999987 Q 4.070644775390624 3.325124999999999 4.070644775390624 3.3176249999999987 L 4.070644775390624 2.827874999999999 Q 4.070644775390624 2.819624999999999 4.0751447753906245 2.8147499999999988 Q 4.079644775390625 2.809874999999999 4.087894775390624 2.809874999999999 L 4.397644775390624 2.809874999999999 Q 4.405894775390625 2.809874999999999 4.410394775390625 2.8147499999999988 Q 4.414894775390625 2.819624999999999 4.414894775390625 2.827874999999999 L 4.414894775390625 2.856374999999999 Q 4.414894775390625 2.864624999999999 4.410394775390625 2.869124999999999 Q 4.405894775390625 2.8736249999999988 4.397644775390624 2.8736249999999988 L 4.142644775390624 2.8736249999999988 L 4.142644775390624 3.0378749999999988 L 4.3811447753906245 3.0378749999999988 Q 4.389394775390625 3.0378749999999988 4.393894775390624 3.042749999999999 Q 4.398394775390624 3.047624999999999 4.398394775390624 3.055874999999999 L 4.398394775390624 3.0836249999999987 Q 4.398394775390624 3.091124999999999 4.393894775390624 3.0959999999999988 Q 4.389394775390625 3.100874999999999 4.3811447753906245 3.100874999999999 L 4.142644775390624 3.100874999999999 L 4.142644775390624 3.2711249999999987 L 4.4036447753906245 3.2711249999999987 Q 4.411894775390625 3.2711249999999987 4.416394775390625 3.275624999999999 Q 4.420894775390624 3.280124999999999 4.420894775390624 3.288374999999999 L 4.420894775390624 3.3176249999999987 Q 4.420894775390624 3.325124999999999 4.416394775390625 3.3299999999999987 Q 4.411894775390625 3.334874999999999 4.4036447753906245 3.334874999999999 L 4.087894775390624 3.334874999999999 M 4.543533325195312 3.334874999999999 Q 4.535283325195312 3.334874999999999 4.530783325195312 3.3299999999999987 Q 4.526283325195312 3.325124999999999 4.526283325195312 3.3176249999999987 L 4.526283325195312 2.827874999999999 Q 4.526283325195312 2.819624999999999 4.530783325195312 2.8147499999999988 Q 4.535283325195312 2.809874999999999 4.543533325195312 2.809874999999999 L 4.726533325195312 2.809874999999999 Q 4.811283325195312 2.809874999999999 4.860783325195312 2.8496249999999987 Q 4.910283325195312 2.889374999999999 4.910283325195312 2.9673749999999988 Q 4.910283325195312 3.0251249999999987 4.881408325195312 3.0614999999999988 Q 4.852533325195312 3.097874999999999 4.803033325195312 3.112124999999999 L 4.9185333251953125 3.311624999999999 Q 4.920783325195312 3.316124999999999 4.920783325195312 3.319874999999999 Q 4.920783325195312 3.325874999999999 4.915908325195312 3.3303749999999988 Q 4.911033325195312 3.334874999999999 4.905033325195312 3.334874999999999 L 4.869033325195312 3.334874999999999 Q 4.856283325195312 3.334874999999999 4.850283325195312 3.328124999999999 Q 4.844283325195312 3.321374999999999 4.839783325195312 3.314624999999999 L 4.7310333251953125 3.124124999999999 L 4.599783325195312 3.124124999999999 L 4.599783325195312 3.3176249999999987 Q 4.599783325195312 3.325124999999999 4.594908325195312 3.3299999999999987 Q 4.5900333251953125 3.334874999999999 4.581783325195312 3.334874999999999 L 4.543533325195312 3.334874999999999 M 4.599783325195312 3.0603749999999987 L 4.723533325195312 3.0603749999999987 Q 4.779783325195312 3.0603749999999987 4.807533325195312 3.0367499999999987 Q 4.835283325195312 3.0131249999999987 4.835283325195312 2.9666249999999987 Q 4.835283325195312 2.9208749999999988 4.807908325195312 2.8968749999999988 Q 4.780533325195312 2.8728749999999987 4.723533325195312 2.8728749999999987 L 4.599783325195312 2.8728749999999987 L 4.599783325195312 3.0603749999999987" fill="#431a10" fill-rule="nonzero"></path></g><g clip-path="url(#SvgjsClipPath1001)"><path d=" M 0 -7.146084733768718 L 7.546457289085313 -7.146084733768718 L 7.546457289085313 -0.9003725553165953 L 0 -0.9003725553165953 Z" fill="#431a10" transform="matrix(1,0,0,1,0,0)" fill-rule="nonzero" mask="url(#maskedMgText-b809ad9c-ecfe-4910-8c78-622e057b9383)"></path></g></g><defs><clipPath id="SvgjsClipPath1001"><path d=" M 0 -7.796457289085313 h 7.546457289085313 v 7.546457289085313 h -7.546457289085313 Z"></path></clipPath><mask id="maskedMgText-b809ad9c-ecfe-4910-8c78-622e057b9383"><path d=" M 6.845429139215733 -5.050622206021954 C 7.286481835476326 -4.760045868105724 7.546457289085313 -4.406418879539186 7.546457289085313 -4.02332297525877 C 7.546457289085313 -3.6402270709783546 7.286481835476326 -3.285656775250681 6.845429139215733 -2.9958350830633593 L 6.845429139215733 -2.1773085932027203 L 6.373549164929229 -2.1773085932027203 L 6.373549164929229 -1.638868865626483 L 5.184982141898292 -1.638868865626483 C 4.802565418773894 -1.1790254907160707 4.3113665138273305 -0.9003725553165953 3.7732286445426566 -0.9003725553165953 C 3.2350907752579827 -0.9003725553165953 2.7426844371451664 -1.1790254907160707 2.361512879473467 -1.6388688656264838 L 1.1729458564425301 -1.6388688656264838 L 1.1729458564425301 -2.1773085932027216 L 0.7008772207237985 -2.1773085932027216 L 0.7008772207237985 -2.995835083063359 C 0.26035277647344346 -3.2860718304015806 0 -3.64075532298859 0 -4.023587101263888 C 0 -4.406418879539186 0.25971132760387095 -4.760951442980414 0.7008772207237985 -5.0509240643135165 L 0.7008772207237985 -5.869450554174155 L 1.1727571950103033 -5.869450554174155 L 1.1727571950103033 -6.407550691172384 L 2.3613242180412404 -6.407550691172384 C 2.7428730985773937 -6.867884585806587 3.234487058674856 -7.146084733768718 3.7732286445426566 -7.146084733768718 C 4.3119702304104575 -7.146084733768718 4.803659655080811 -6.867884585806587 5.184982141898292 -6.407550691172384 L 6.373549164929229 -6.407550691172384 L 6.373549164929229 -5.869148695882592 L 6.845429139215733 -5.869148695882592 Z M 3.687425425165757 -1.140274432536616 L 3.6813882593344887 -1.051113039666074 C 3.711838214495948 -1.0493396222031395 3.7427032248083068 -1.048018992177548 3.773153179969766 -1.048018992177548 L 3.773153179969766 -1.1377463693447742 C 3.745080358854369 -1.1377463693447742 3.716856608593189 -1.1380482276363368 3.687425425165757 -1.140274432536616 Z M 3.9041974107947324 -1.144236322613386 C 3.875935928247108 -1.1409913459790788 3.847259390548584 -1.1392179285161435 3.8188847111416235 -1.1380482276363368 L 3.8220919554894843 -1.049641480494702 C 3.8522777846458256 -1.0505093230829479 3.8828409366666214 -1.0525845988374467 3.9132908918280807 -1.0558295754717522 Z M 3.51744147472911 -1.1631024658360989 L 3.4997827646726503 -1.0760163487200556 L 3.4997827646726503 -1.0754503644233742 C 3.5295912709645374 -1.0695138180226271 3.5597771001208787 -1.0645960433559063 3.590340252141675 -1.0606970404232134 L 3.6022636546584295 -1.1491037875648464 C 3.5741908335430317 -1.152914748495835 3.5453633666987256 -1.1575180874421775 3.51744147472911 -1.1631024658361007 Z M 3.98977423645296 -1.1558955991250226 L 3.98977423645296 -1.1558955991250226 L 3.98977423645296 -1.1558955991250226 Z M 3.98977423645296 -1.1558955991250226 L 4.004489828166677 -1.0676020488427245 L 4.012790931184671 -1.0692245371598785 C 4.040297768003386 -1.0745825218351284 4.067729140249211 -1.0799027742239335 4.094481331339019 -1.0864681920654382 L 4.0737285737940345 -1.1729505925983554 C 4.046146272402428 -1.1666493007619705 4.0179602544276944 -1.1607630640764839 3.98977423645296 -1.1558955991250235 Z M 3.35111755607767 -1.2080416189926018 L 3.3225542152384815 -1.1235967619277378 L 3.3219882309418 -1.1235967619277378 C 3.3513816820827875 -1.1140504934570448 3.3808128655102196 -1.104730618705025 3.410206316651207 -1.0969577676972664 L 3.4336380665338173 -1.1828364516470584 C 3.406093497428656 -1.1906470349412617 3.378435731464159 -1.199061334818592 3.35111755607767 -1.2080416189926035 Z M 4.238731862419884 -1.2236627855810083 C 4.211979671330077 -1.213361871381407 4.184472834511361 -1.2039287997700505 4.157267855984209 -1.1959295550436195 L 4.157267855984209 -1.1959295550436195 L 4.183152204485771 -1.1105791231040643 C 4.212243797335195 -1.1195971395645223 4.24050527988282 -1.129445266326778 4.269936463310253 -1.1400857711043884 Z M 3.1912458584083976 -1.2733184745431902 L 3.152721193947617 -1.1927223106957587 L 3.152721193947617 -1.1927223106957587 C 3.1804921567714515 -1.1792896167211868 3.2086027101732935 -1.1671020881993144 3.2366755312886912 -1.155857866838577 L 3.270634589089575 -1.2379255898573804 C 3.2436182719946496 -1.2491698112181187 3.217582994347305 -1.2604894971517462 3.191245858408397 -1.2733184745431911 Z M 4.396528284334659 -1.293052460354148 C 4.370945794124659 -1.2802612152491486 4.344910516477316 -1.2677340961492671 4.31887523882997 -1.2559238904918484 L 4.354456784948008 -1.174874939207072 C 4.380454330308907 -1.1857795699897995 4.406150017378243 -1.1984576182354632 4.432147562739141 -1.211286595626909 L 4.437543279700837 -1.2139278556780884 Z M 3.038920618028211 -1.3556880558535562 L 2.9928872285647907 -1.2802234829627022 C 3.0175264116136544 -1.263885402931833 3.0431089018236537 -1.2496225986554617 3.068653659747207 -1.235397526665536 L 3.0715590458035047 -1.2337750383483828 L 3.113894671195273 -1.3124845878735432 C 3.094349346816542 -1.3232382895104902 3.0748417547242575 -1.334633440017008 3.055107768913298 -1.3461795196693096 Z M 4.475237833859818 -1.3361804637612709 L 4.472860699813757 -1.3347466368763445 L 4.472860699813757 -1.3347466368763445 L 4.5169697426684605 -1.2573954496632194 C 4.543382343180259 -1.2730166162516259 4.569153494822485 -1.2889396411315959 4.594886914178266 -1.3055795794540286 L 4.546212264663666 -1.3804404357617548 C 4.522893711640392 -1.3647438046004599 4.499009174320437 -1.3504055357511984 4.475237833859818 -1.3361804637612718 Z M 2.895952984686489 -1.4538297328981118 L 2.8421467442153108 -1.3832326249587181 C 2.866106746108157 -1.3646683400275688 2.8909723228756925 -1.3466700393931 2.9156492382110013 -1.329464116773985 L 2.9662482343343184 -1.4031175399154572 C 2.9425523584465907 -1.4195185070904035 2.919120608563981 -1.436422571417955 2.895952984686489 -1.4538297328981118 Z M 4.686802763959325 -1.482393073737299 C 4.664465250383633 -1.4638287888061496 4.64122216193325 -1.446321007895472 4.617979073482867 -1.4293414789950294 L 4.670351487069119 -1.357159615024928 C 4.694575614967083 -1.374818325081388 4.718875207437938 -1.3936844683041008 4.742684280185002 -1.4125506115268145 Z M 2.7620033678052245 -1.5654795684901286 L 2.7024240875078966 -1.4994480672106318 L 2.7024240875078966 -1.498995279773287 L 2.7030655363774687 -1.4984292954766065 C 2.7253653176667156 -1.4785821128063112 2.7479292249610805 -1.4584708041308998 2.770681793687673 -1.4400951806319773 L 2.82788393993894 -1.5080132962337451 L 2.813432474230342 -1.5205404153336266 C 2.796452945329899 -1.5352937393337882 2.7790960935650033 -1.550386653911958 2.7620033678052245 -1.5654795684901286 Z M 4.817960191643627 -1.597023759958506 C 4.796641449801962 -1.5766860575644213 4.775473637106077 -1.5573671269043627 4.753815304686403 -1.5380481962443042 L 4.753362517249057 -1.5383877868223124 L 4.8121871518174775 -1.4711865846630081 C 4.830185452451946 -1.4865436252462967 4.847278178211724 -1.5025798469856024 4.8645972976901755 -1.5187669978706904 L 4.879388353976783 -1.5326147469961615 Z M 2.63861879112868 -1.6881094994377648 L 2.573455132437428 -1.6277378411250831 C 2.5945349031316067 -1.6057021858409533 2.6156649835410457 -1.5839935437060184 2.6368453736657456 -1.562611914720276 L 2.6992168431600354 -1.6259644236621478 C 2.6789923376252864 -1.6458116063324422 2.6586169029447557 -1.666903954455436 2.63861879112868 -1.6881094994377648 Z M 4.9393072248521195 -1.7222949509573215 C 4.919610971327607 -1.7006366185376462 4.899612859511531 -1.679393341268872 4.879577015409009 -1.658489654578105 L 4.879577015409009 -1.6581877962865414 L 4.943721902366234 -1.5958540590786976 L 4.958097903501941 -1.611135635089095 C 4.9742473221005845 -1.628266093135319 4.990094882407664 -1.6450946928899786 5.005791513568961 -1.662602473800657 Z M 2.45463616242078 -1.7644419149168629 L 2.482595786676841 -1.731124305985551 L 2.4837654875566497 -1.731124305985551 C 2.492557110298434 -1.7193141003281331 2.502631630779363 -1.7077680206758314 2.51214016696361 -1.696523799315095 L 2.5131589386976367 -1.695316366148841 L 2.580360140856942 -1.7532354258425702 C 2.569795100652222 -1.7650078992135443 2.560248832181529 -1.7765162465793978 2.5509666897159544 -1.7878736647994717 L 2.5234598528972385 -1.8210403445850014 Z M 5.0523908873290635 -1.8574142687183937 L 4.995188741077797 -1.7887415073877175 L 5.063710573262692 -1.7318412194280146 L 5.120309002930832 -1.800664909904473 Z M 6.0638425577851685 -1.8755257662121982 L 6.0638425577851685 -1.7871190190705644 L 6.152060643494575 -1.7871190190705644 L 6.152060643494575 -1.8755257662121982 Z M 5.8855952366169735 -1.8755257662121982 L 5.8855952366169735 -1.7871190190705644 L 5.97456796805529 -1.7871190190705644 L 5.97456796805529 -1.8755257662121982 Z M 5.707800702886124 -1.8755257662121982 L 5.707800702886124 -1.7871190190705644 L 5.796962095756667 -1.7871190190705644 L 5.796962095756667 -1.8755257662121982 Z M 5.530006169155274 -1.8755257662121982 L 5.530006169155274 -1.7871190190705644 L 5.619167562025817 -1.7871190190705644 L 5.619167562025817 -1.8755257662121982 Z M 5.351947509419307 -1.8755257662121982 L 5.351947509419307 -1.7871190190705644 L 5.4409957054305105 -1.7871190190705644 L 5.4409957054305105 -1.8755257662121982 Z M 5.174303904834239 -1.7871190190705644 L 5.262521990543646 -1.7871190190705644 L 5.262521990543646 -1.8755257662121982 L 5.174303904834239 -1.8755257662121982 Z M 2.329289506849075 -1.8755257662121982 L 2.329289506849075 -1.7871190190705644 L 2.417507592558482 -1.7871190190705644 L 2.417507592558482 -1.8755257662121982 Z M 2.1514949731182247 -1.8755257662121982 L 2.1514949731182247 -1.7871190190705644 L 2.240467704556541 -1.7871190190705644 L 2.240467704556541 -1.8755257662121982 Z M 1.9733985810958117 -1.8755257662121982 L 1.9733985810958117 -1.7871190190705644 L 2.0626731708256907 -1.7871190190705644 L 2.0626731708256907 -1.8755257662121982 Z M 1.7957549765107435 -1.8755257662121982 L 1.7957549765107435 -1.7871190190705644 L 1.8848786370948412 -1.7871190190705644 L 1.8848786370948412 -1.8755257662121982 Z M 1.6173944584832118 -1.8755257662121982 L 1.6173944584832118 -1.7871190190705644 L 1.706669048213091 -1.7871190190705644 L 1.706669048213091 -1.8755257662121982 Z M 1.4400527121897069 -1.8755257662121982 L 1.4400527121897069 -1.7871190190705644 L 1.528157601039776 -1.7871190190705644 L 1.528157601039776 -1.8755257662121982 Z M 1.326855852853427 -1.9411044800543493 L 1.326855852853427 -1.851792158038025 L 1.4159795134375246 -1.851792158038025 L 1.4159795134375246 -1.9411044800543493 Z M 6.130175917356229 -1.9873642632364428 L 6.130175917356229 -1.898957516094808 L 6.219148648794545 -1.898957516094808 L 6.219148648794545 -1.9873642632364428 Z M 1.3268558528534267 -2.1196913918005533 L 1.3268558528534267 -2.0299640146333284 L 1.4159795134375242 -2.0304168020706737 L 1.4159795134375242 -2.1196913918005533 Z M 6.130175917356229 -2.1665548915657733 L 6.130175917356229 -2.0773934986952303 L 6.219148648794545 -2.0773934986952303 L 6.219148648794545 -2.166554891565774 Z M 1.3268558528534267 -2.2969576735211668 L 1.3268558528534267 -2.208550926379533 L 1.4159795134375242 -2.208550926379533 L 1.4159795134375242 -2.2969576735211668 Z M 6.130175917356229 -2.3439721024321685 L 6.130175917356229 -2.255527623004088 L 6.219148648794545 -2.255527623004088 L 6.219148648794545 -2.3439721024321676 Z M 6.594886757218103 -2.3251059592094547 L 6.646466792789 -2.3251059592094547 L 6.690575835643704 -2.3248041009178917 L 6.690575835643704 -2.406569965645131 L 6.646466792789 -2.406569965645131 L 6.646466792789 -2.41351270635109 L 6.594886757218103 -2.41351270635109 Z M 6.416790365195689 -2.41351270635109 L 6.416790365195689 -2.3251059592094547 L 6.505763096634005 -2.3251059592094547 L 6.505763096634005 -2.41351270635109 Z M 6.239146760610621 -2.41351270635109 L 6.239146760610621 -2.3251059592094547 L 6.3273648463200285 -2.3251059592094547 L 6.3273648463200285 -2.41351270635109 Z M 1.2652767613744906 -2.41351270635109 L 1.2652767613744906 -2.3251059592094547 L 1.3534948470838981 -2.3251059592094547 L 1.3534948470838981 -2.41351270635109 Z M 1.0874822276436409 -2.3251059592094547 L 1.1766058882277384 -2.3251059592094547 L 1.1766058882277384 -2.41351270635109 L 1.087029440206294 -2.41351270635109 Z M 0.909536764767009 -2.41351270635109 L 0.909536764767009 -2.3251059592094547 L 0.9977925827628619 -2.3251059592094547 L 0.9977925827628619 -2.41351270635109 Z M 0.8552777368584856 -2.538029251620997 L 0.8552777368584856 -2.4487546618911176 L 0.943495822567893 -2.4487546618911176 L 0.943495822567893 -2.538029251620997 Z M 6.601904962496952 -2.584477696235317 L 6.601904962496952 -2.4960332168072368 L 6.690990890794604 -2.4960332168072368 L 6.690990890794604 -2.584251302516646 Z M 0.8552777368584852 -2.71654069879431 L 0.8552777368584852 -2.6269265184864214 L 0.9434958225678926 -2.6269265184864214 L 0.9434958225678926 -2.7163143050756386 Z M 6.601904962496952 -2.7635551277053114 L 6.601904962496952 -2.674091876543205 L 6.690990890794604 -2.674091876543205 L 6.690990890794604 -2.7634796631324217 Z M 0.8552777368584852 -2.8946748231031685 L 0.8552777368584852 -2.8053625010868437 L 0.9434958225678926 -2.8053625010868437 L 0.9434958225678926 -2.8946748231031685 Z M 6.601904962496952 -2.9416892520141698 L 6.601904962496952 -2.852150536279175 L 6.690990890794604 -2.852150536279175 L 6.690990890794604 -2.9414628582954996 Z M 0.8552777368584852 -3.0729976088442545 L 0.8552777368584852 -2.9836852868279293 L 0.9434958225678926 -2.9836852868279293 L 0.9434958225678926 -3.0729976088442545 Z M 6.601904962496952 -3.121747722931745 L 6.601904962496952 -3.030397857447367 L 6.690990890794604 -3.030397857447367 L 6.690990890794604 -3.0977877210389018 L 6.673068054733027 -3.0977877210389018 L 6.640429626957732 -3.146839693417956 L 6.621865342026583 -3.134614432609638 Z M 0.746872877900775 -3.1456322602517 C 0.7608338238855827 -3.1360482594945616 0.7743419824330455 -3.126766117028987 0.7883783929907444 -3.1177858328549752 L 0.7883783929907444 -3.11865367544322 L 0.8218846633542831 -3.0965425555862 L 0.8705593128688833 -3.170233711014118 L 0.8373549007969079 -3.192344830871138 C 0.8238090099629998 -3.2010232567535866 0.8105649774206551 -3.209701682636034 0.7973209448783103 -3.219285683393173 Z M 6.7718889129335995 -3.235246440559588 C 6.752607714559986 -3.221851478871462 6.733628374477936 -3.2088338400477894 6.714686766682331 -3.196155791802126 L 6.714686766682331 -3.195401146073218 L 6.763512345342715 -3.121747722931745 C 6.78822699296447 -3.1380858029626153 6.813054837445558 -3.1549144027172757 6.838486398509778 -3.1731768293568616 L 6.786453575501534 -3.245358693326963 Z M 0.6580510756082394 -3.323539990841889 L 0.6014526459400995 -3.254301245214531 C 0.6257145061245089 -3.2348313854086905 0.649523578871573 -3.216267100477541 0.6737854390559823 -3.1983065321295183 L 0.7268747660846975 -3.2699978763758293 C 0.7038203390665416 -3.287279263567834 0.6808791089077224 -3.3049379736242934 0.6580510756082394 -3.323539990841889 Z M 6.863616101282429 -3.303541879025812 L 6.857201612586707 -3.298485752642126 L 6.857201612586707 -3.298221626637007 L 6.911913427932575 -3.227737715556951 C 6.935722500679638 -3.2463020004881002 6.9591165182758035 -3.2657718602939405 6.9823596067261855 -3.285505846104899 L 6.924704673037574 -3.3534239617066666 C 6.904744293507943 -3.3361048422282154 6.883953803676515 -3.3196535653380104 6.863502904423093 -3.303541879025812 Z M 0.5292330496835531 -3.4403968819633755 L 0.46644652503836337 -3.3771575698808403 L 0.4670502416214901 -3.3771575698808403 C 0.48893496775983736 -3.355386040601829 0.5107064970388486 -3.334293692478836 0.5330817429009864 -3.3139559900847506 L 0.5919063774694064 -3.3804025465151466 C 0.5702857773361771 -3.3998724063209864 0.5495330197911927 -3.4196063921319446 0.5292330496835531 -3.4403968819633755 Z M 7.049862667177055 -3.4730730420251144 C 7.030581468803441 -3.4520184261885665 7.010130569550021 -3.4311147394978008 6.988962756854137 -3.411795808837742 L 7.050428651473735 -3.3466698824329355 C 7.072652968190091 -3.367573569123702 7.093820780885976 -3.3894205629756033 7.115139522727643 -3.411795808837742 Z M 0.41505515089969225 -3.5690639787422795 L 0.34423164924162664 -3.514955879979538 L 0.3445335075331899 -3.514955879979538 C 0.3633996507559032 -3.490807216654465 0.38320910113975226 -3.4669604116209554 0.4033581421016099 -3.4439437168892453 L 0.4696915016726697 -3.502919280603447 C 0.45086309073640196 -3.524992668174021 0.4326383963832612 -3.5464246068750236 0.41505515089969225 -3.5690639787422795 Z M 7.1594749593010185 -3.6045700602874255 C 7.143136879270149 -3.580987381259034 7.125930956651034 -3.558876261402015 7.107706262297893 -3.536651944685658 L 7.176982740211697 -3.4797893890124 C 7.196829922881992 -3.5037871231916915 7.215356475526695 -3.528237644808328 7.233015185583156 -3.5534428121538726 Z M 0.3241203405662143 -3.711805218365328 L 0.24525986189527282 -3.6709411521449313 C 0.2599377213225438 -3.643698441331334 0.2754456910516141 -3.6164179982312903 0.2920101648011564 -3.5903449882975003 L 0.3671728794004461 -3.6382649920831924 C 0.35132531909336673 -3.66245138769471 0.33717571167633187 -3.687052838457128 0.3241203405662143 -3.711805218365328 Z M 7.244221674657447 -3.7517259774245897 C 7.2325143165759425 -3.7260872266704195 7.219504880401861 -3.701063267640508 7.205244222759322 -3.676751924257526 L 7.205244222759322 -3.676299136820182 L 7.282746339118229 -3.632076897106143 C 7.298216576560852 -3.6595082693519676 7.31259257769656 -3.687052838457129 7.325232893655779 -3.715804840728544 Z M 0.2641260051179861 -3.8681678133951753 L 0.17836051802753117 -3.846320819543274 C 0.1860888565408494 -3.815872361682407 0.19547299239820193 -3.7858683192499045 0.20647107142937493 -3.756442513230265 L 0.2898594244737669 -3.788288562990207 C 0.2798226362792835 -3.8146634312155614 0.27114421039683534 -3.8411892285866958 0.2641260051179861 -3.8681678133951753 Z M 7.294405615629865 -3.911333549088744 C 7.289242867296804 -3.883965483382614 7.282374782386851 -3.856946815406583 7.273841519517108 -3.8304355269497496 L 7.358663699446426 -3.8033060129954874 C 7.368546743159877 -3.8333043390291124 7.376214422418252 -3.8639876673771822 7.381604929605247 -3.895108665917213 Z M 0.15617393359762044 -4.034340802900835 L 0.15617393359762044 -4.02332297525877 L 0.15587207530605718 -4.023021116967207 C 0.15611457539092055 -3.9950078652544248 0.1577769289979465 -3.967024912869495 0.16085273711685355 -3.9391799764854687 L 0.24903309053981548 -3.9496318198308518 C 0.24634283409647795 -3.9741012174100145 0.2450829492109421 -3.998706769224529 0.24525986189527282 -4.02332297525877 L 0.24525986189527282 -4.032869243729463 Z M 7.304253742392122 -4.007928202389036 C 7.304027348673449 -4.003098469724021 7.303800954954776 -3.9983442016318973 7.303800954954776 -3.993627665826219 L 7.304404671537903 -3.993627665826219 L 7.3938301904135635 -3.989062059166322 L 7.3938301904135635 -4.023021116967207 C 7.3938301904135635 -4.04362294536641 7.3926227572473096 -4.064262506052058 7.391339859508165 -4.084751137591924 L 7.302329395783405 -4.076336837714594 C 7.303800954954775 -4.058942253663252 7.304706529829466 -4.04098168531523 7.304706529829466 -4.023021116967207 C 7.304706529829466 -4.018078187442855 7.304480136110793 -4.01309752563206 7.30425374239212 -4.008116863821263 Z M 0.251485689158768 -4.115767077050064 L 0.25205167345544943 -4.115767077050064 L 0.2514479568723227 -4.115767077050064 Z M 0.16379585545959663 -4.128935645019519 L 0.251485689158768 -4.115767077050064 C 0.25556256289570856 -4.143143504997138 0.2615514894085065 -4.170200844568642 0.26940852522034575 -4.196740563761951 L 0.18379396727567276 -4.221342014524368 C 0.1752243575998076 -4.190982847989535 0.168545504869672 -4.160121507732739 0.16379585545959663 -4.128935645019518 Z M 7.350588990147105 -4.268545104867597 L 7.266596920519586 -4.239076189153719 L 7.266596920519586 -4.239076189153719 C 7.276023321052858 -4.2126837757385625 7.283934826109616 -4.1857745801952 7.2902927964073125 -4.158480025306289 L 7.376737464653785 -4.1779498851121275 C 7.3698967359595215 -4.208683066445225 7.361163945761045 -4.238964299990595 7.350588990147105 -4.26862056944049 Z M 0.2563154218237824 -4.395061461319112 C 0.24144890096428462 -4.367667821359732 0.22763888412525835 -4.339066748234099 0.21541362331694036 -4.310616604254248 L 0.2979341337730883 -4.276016097583791 C 0.30863144274038024 -4.302032527758553 0.32090461610727994 -4.327372724515056 0.33468538077093357 -4.3518957256255435 Z M 7.269540038862329 -4.437208425278653 L 7.1933962848154565 -4.390646783804998 L 7.192943497378113 -4.389778941216752 C 7.207817725996163 -4.365984034913911 7.221408195974292 -4.341410349161055 7.233656634452728 -4.316163250361727 L 7.313649081717032 -4.355668954270087 C 7.300487104388691 -4.383654596390326 7.285760813240933 -4.410877449401708 7.269540038862329 -4.437208425278653 Z M 0.35955095753846966 -4.5482922765739895 C 0.34011883001907495 -4.524747329832044 0.3218186710930431 -4.4998440207780614 0.30483914219260133 -4.474638853432517 L 0.3051410004841646 -4.4741860659951715 L 0.37864349447985557 -4.4239266604498635 C 0.39441559021404404 -4.447660268624038 0.4111687253958134 -4.470526034209966 0.42882743545227275 -4.492901280072104 Z M 7.159701353019692 -4.587081067039888 L 7.09265108000617 -4.528860149054595 C 7.110875774359309 -4.507050887489139 7.129100468712451 -4.484637909340555 7.145476281029767 -4.461508017749509 L 7.217167625276076 -4.514333218773106 C 7.1993202537873895 -4.5391610632541965 7.180001323127331 -4.563196529719933 7.159701353019692 -4.587081067039888 Z M 0.4829732665014601 -4.685034082652216 C 0.46089987893088535 -4.663111624227422 0.4397320662350013 -4.641566488667084 0.4188283795442349 -4.618889384513382 L 0.4188283795442349 -4.618285667930255 L 0.48455802253216795 -4.559347836502499 C 0.5039901500515627 -4.580440184625493 0.5241391910134203 -4.600853351592468 0.5445900902668417 -4.621115589413662 Z M 7.032392618552823 -4.718502620729309 L 6.97202096024014 -4.652357922590475 C 6.993490631227588 -4.633491779367763 7.014243388772572 -4.613455935265241 7.034090571442867 -4.5923635871422475 L 7.097895867822084 -4.654999182641656 C 7.07646392912108 -4.676808444207112 7.05469239984207 -4.698164918335224 7.0323548862663765 -4.718502620729309 Z M 0.6108479852650106 -4.7979668159833775 C 0.5906612120167076 -4.781477806806726 0.5702103127632863 -4.764800136197847 0.5499858072285377 -4.747216890714278 L 0.6088104417969578 -4.679600633404075 C 0.6314498136642139 -4.699334619215032 0.6527685555058798 -4.717898904146182 0.6754079273731355 -4.735897204780651 L 0.6198282694390225 -4.80528687955379 Z M 6.8923303712673984 -4.835208582705013 L 6.83852413079622 -4.764045490468939 C 6.8611635026634765 -4.746650906417597 6.884104732822296 -4.728954464074691 6.906744104689552 -4.70982419484686 L 6.963833054081482 -4.778459223891091 C 6.939722123042854 -4.798230941988495 6.9163281054466905 -4.816946156065427 6.8923303712673984 -4.835208582705013 Z M 0.6924629208464674 -4.860489214623449 L 0.6924629208464674 -4.860489214623449 L 0.6924629208464674 -4.860753340628567 Z M 0.7668709897168486 -4.912861628209701 C 0.7421186098086487 -4.896183957600822 0.7173159201851884 -4.878726486405405 0.6924629208464674 -4.860489214623449 L 0.7448353344327194 -4.788797870377139 C 0.7686444071797836 -4.806003792996253 0.792491212213293 -4.8227569281780225 0.8161493558145758 -4.8390195436360015 Z M 6.694990513157818 -4.864375640127328 L 6.711026734897125 -4.854074725927727 C 6.72955328754183 -4.841811732832963 6.748985415061224 -4.829020487727963 6.768077952002609 -4.815587793753391 L 6.8188278772717075 -4.888411106593065 C 6.798980694601414 -4.9023720525778725 6.7796994962278 -4.915804746552444 6.760003242703288 -4.928633723943889 L 6.744268879255546 -4.938934638143491 Z M 0.8573152803265369 -4.972705034512147 L 0.8412790585872307 -4.9621022620209825 L 0.8407130742905493 -4.9621022620209825 L 0.8897650466696038 -4.8873923348590385 L 0.9456465628952807 -4.924822763012902 L 0.9456465628952807 -4.994325634645377 L 0.8573152803265369 -4.994325634645377 Z M 6.603942505965004 -5.04198151242595 L 6.603942505965004 -4.952329599831617 L 6.693066166549102 -4.952329599831617 L 6.693066166549102 -5.041943780139506 Z M 0.8573152803265371 -5.172233365235563 L 0.8573152803265371 -5.083826618093929 L 0.9455710983223898 -5.083826618093929 L 0.9455710983223898 -5.172195632949117 Z M 6.603942505965004 -5.219813778443246 L 6.603942505965004 -5.130539188713367 L 6.693066166549102 -5.130539188713367 L 6.693066166549102 -5.219776046156801 Z M 0.8573152803265369 -5.350782544695322 L 0.8573152803265369 -5.261470222678997 L 0.9455710983223898 -5.261470222678997 L 0.9455710983223898 -5.350782544695322 Z M 6.603942505965004 -5.398061099611441 L 6.603942505965004 -5.308937439027344 L 6.693066166549102 -5.308937439027344 L 6.693066166549102 -5.398061099611441 Z M 0.8573152803265371 -5.529067598149963 L 0.8573152803265371 -5.4399439375658645 L 0.9455710983223898 -5.4399439375658645 L 0.9455710983223898 -5.529067598149963 Z M 6.603942505965004 -5.576534814498309 L 6.603942505965004 -5.487222492481984 L 6.693066166549102 -5.487222492481984 L 6.693066166549102 -5.576421617638973 Z M 0.8573152803265371 -5.721502259021638 L 0.8573152803265371 -5.618379920166287 L 0.9454201691766083 -5.618379920166287 L 0.9454201691766083 -5.677317751594043 L 0.931610152337582 -5.677317751594043 L 0.931610152337582 -5.721502259021637 Z M 6.481161645871586 -5.721502259021638 L 6.392943560162179 -5.721502259021638 L 6.392943560162179 -5.633020047307112 L 6.481161645871586 -5.633020047307112 Z M 6.3033671121407355 -5.721502259021638 L 6.2151490264313285 -5.721502259021638 L 6.2151490264313285 -5.633020047307112 L 6.3033671121407355 -5.633020047307112 Z M 1.2876142749501815 -5.721502259021638 L 1.1993961892407743 -5.721502259021638 L 1.1993961892407743 -5.633020047307112 L 1.2876142749501815 -5.633020047307112 Z M 1.1102725286566768 -5.721502259021638 L 1.021299797218361 -5.721502259021638 L 1.021299797218361 -5.633020047307112 L 1.1102725286566768 -5.633020047307112 Z M 6.570587164747247 -5.721502259021638 L 6.570587164747247 -5.633020047307112 L 6.648957123694398 -5.632567259869767 L 6.648957123694398 -5.665733939655297 L 6.693103898835545 -5.665733939655297 L 6.693103898835545 -5.721502259021637 Z M 1.3289311286079237 -5.769384530520884 L 1.3289311286079237 -5.68097778337925 L 1.4180547891920214 -5.68097778337925 L 1.4180547891920214 -5.769384530520884 Z M 6.132251193110726 -5.8163989594318855 L 6.132251193110726 -5.727992212290252 L 6.221186192262596 -5.727992212290252 L 6.221186192262596 -5.8163989594318855 Z M 1.3289311286079237 -5.859715624271235 L 1.417149214317331 -5.859715624271235 L 1.417149214317331 -5.94812237141287 L 1.3289311286079237 -5.94812237141287 Z M 6.130741901652909 -5.9949858711780895 L 6.130741901652909 -5.906579124036455 L 6.219714633091225 -5.906579124036455 L 6.219714633091225 -5.9949858711780895 Z M 1.3274218371501076 -6.126294228008174 L 1.3274218371501076 -6.037849748580094 L 1.4165454977342051 -6.037849748580094 L 1.4165454977342051 -6.126294228008174 Z M 6.130741901652909 -6.173421853778511 L 6.130741901652909 -6.085015106636877 L 6.219714633091225 -6.085015106636877 L 6.219714633091225 -6.173421853778511 Z M 6.038826051871849 -6.2593760023011935 L 6.038826051871849 -6.171082452018895 L 6.127044137581258 -6.171082452018895 L 6.127044137581258 -6.2593760023011935 Z M 5.860880588995219 -6.2593760023011935 L 5.860880588995219 -6.171082452018895 L 5.94913640699107 -6.171082452018895 L 5.94913640699107 -6.2593760023011935 Z M 5.68323698441015 -6.2593760023011935 L 5.68323698441015 -6.171082452018895 L 5.771492802406002 -6.171082452018895 L 5.771492802406002 -6.2593760023011935 Z M 5.505178324674182 -6.2593760023011935 L 5.505178324674182 -6.171082452018895 L 5.59339641038359 -6.171082452018895 L 5.59339641038359 -6.2593760023011935 Z M 5.327119664938214 -6.2593760023011935 L 5.327119664938214 -6.171082452018895 L 5.416054664090085 -6.171082452018895 L 5.416054664090085 -6.2593760023011935 Z M 5.1494383280667 -6.170969255159559 L 5.2376941460625535 -6.170969255159559 L 5.2376941460625535 -6.2593760023011935 L 5.1494383280667 -6.2593760023011935 Z M 2.4402601612850727 -6.170969255159559 L 2.457918871341533 -6.170969255159559 L 2.4786716288865174 -6.170365538576432 L 2.5374585311684923 -6.241226772520943 L 2.468898966697151 -6.298240257339983 L 2.423620222962639 -6.243566174280559 L 2.440222428998627 -6.230020283446652 Z M 2.2618619109710956 -6.2593760023011935 L 2.2618619109710956 -6.171082452018895 L 2.350721445550075 -6.171082452018895 L 2.350721445550075 -6.2593760023011935 Z M 2.0842183063860276 -6.2593760023011935 L 2.0842183063860276 -6.171082452018895 L 2.1724363920954346 -6.171082452018895 L 2.1724363920954346 -6.2593760023011935 Z M 1.906121914363614 -6.2593760023011935 L 1.906121914363614 -6.171082452018895 L 1.9943777323594667 -6.171082452018895 L 1.9943777323594667 -6.2593760023011935 Z M 1.7283273806327641 -6.2593760023011935 L 1.7283273806327641 -6.171082452018895 L 1.81730011207108 -6.171082452018895 L 1.81730011207108 -6.2593760023011935 Z M 1.550532846901914 -6.2593760023011935 L 1.550532846901914 -6.171082452018895 L 1.6387886648977668 -6.171082452018895 L 1.6387886648977668 -6.2593760023011935 Z M 1.3726251163117278 -6.2593760023011935 L 1.3726251163117278 -6.171082452018895 L 1.460843202021135 -6.171082452018895 L 1.460843202021135 -6.2593760023011935 Z M 4.993566252760642 -6.261866333206592 L 4.995641528515141 -6.2593760023011935 L 5.036505594735537 -6.20956938419323 L 5.105178356066214 -6.2664319398664885 L 5.064314289845817 -6.31608762882867 C 5.059295895748575 -6.321596542649702 5.054768021375124 -6.327143188757179 5.049976020996555 -6.33291622858333 L 5.047825280669166 -6.335557488634509 L 4.979907165067399 -6.27763842894078 C 4.98443503944085 -6.27277096398932 4.989076110673638 -6.267375247027624 4.993566252760643 -6.261979530065928 Z M 2.5273085461146714 -6.3680827195504675 Z M 2.588434850156262 -6.43513299256399 C 2.567833021757059 -6.413625589290097 2.54711799649852 -6.391061681995732 2.5272708138282263 -6.3680827195504675 L 2.593868299404404 -6.309446746414275 C 2.6135645529289167 -6.331557866271295 2.6328457513025296 -6.353065269545188 2.652692933972824 -6.374119885381735 Z M 4.925572672585984 -6.469620302375111 L 4.862182431357667 -6.407437494313047 C 4.882784259756869 -6.386647004481618 4.9028201038593915 -6.365931979223078 4.922365428238122 -6.343896323938949 L 4.988095071226055 -6.403739730241395 C 4.967681904259081 -6.42671869268666 4.947117808146323 -6.448678883397898 4.92561040487243 -6.46962030237511 Z M 2.718460309247203 -6.561838010447733 C 2.696273724817292 -6.5421040246367745 2.6740494081009354 -6.521162605659563 2.652126949676143 -6.499957060677233 L 2.651711894525244 -6.500409848114578 L 2.713743773441525 -6.436264961157353 C 2.7344965309865095 -6.4563008052598745 2.755966201973957 -6.476185720216614 2.777284943815623 -6.4952027925851095 Z M 4.792679559725192 -6.5938349893534545 L 4.734873696890798 -6.525916873751687 C 4.756833887602037 -6.507050730528974 4.7782658263030395 -6.487920461301142 4.799471371285369 -6.467884617198621 L 4.860484478467623 -6.533161472749208 C 4.837996035746149 -6.554027427153529 4.8156207898840115 -6.574063271256051 4.792679559725192 -6.5938349893534545 Z M 2.85889987939708 -6.676317767523157 C 2.834638019212671 -6.658357199175134 2.810828946465607 -6.6397929142439835 2.7872085351507696 -6.620323054438144 L 2.843542838813791 -6.551084308810786 C 2.8658803523894836 -6.569648593741936 2.888821582548303 -6.587646894376404 2.9119137418529037 -6.604890549281965 Z M 4.597264048224328 -6.632170992382008 L 4.596962189932764 -6.631680472658218 L 4.596962189932764 -6.632284189241345 Z M 4.648278099498544 -6.7053716280861355 L 4.597264048224328 -6.632170992382008 C 4.6210353886849465 -6.615681983205357 4.644240744848884 -6.598211934581124 4.666955581289031 -6.580704153670446 L 4.7218183257806805 -6.6511503324640575 L 4.716649002537657 -6.6549235611086 C 4.693632307805947 -6.672204948300606 4.671257061943809 -6.68892035119593 4.648278099498544 -6.7053716280861355 Z M 2.9370434446255587 -6.731784228597934 L 2.9332702159810164 -6.729369362265427 L 2.9332702159810164 -6.729369362265427 L 2.982699511224525 -6.654810364249264 C 3.0072632297004978 -6.671488034858142 3.0314118930255707 -6.686203626571858 3.056315202079552 -6.700843753712684 L 3.010508206334804 -6.777402562910455 C 2.985755826426604 -6.76325295549342 2.9612675725235222 -6.747367662899895 2.9370434446255587 -6.731633299452152 Z M 4.494896355097886 -6.801890816813536 L 4.4507873122431825 -6.7243887004546306 L 4.4522588714145535 -6.7243887004546306 C 4.463578557348182 -6.717445959748671 4.474898243281809 -6.710729612761386 4.486217929215438 -6.703937801201209 C 4.4992355680391105 -6.696391343912124 4.5124041360085645 -6.688467563758584 4.525685900837354 -6.68016646074059 L 4.573304046331483 -6.755631033631444 C 4.548287540418165 -6.771893649089423 4.522969176213283 -6.786156453365794 4.49783947344063 -6.800343793069274 Z M 3.0902742598804362 -6.822719038931412 L 3.0902742598804362 -6.822719038931412 L 3.0902742598804362 -6.8229454326500845 Z M 3.0902742598804362 -6.822719038931412 L 3.131779774970405 -6.7436698988282435 C 3.1574754620397405 -6.757102592802815 3.1833975428277483 -6.769893837907815 3.20913096218353 -6.78140218527367 L 3.1723419828992387 -6.862602065704228 L 3.166606675359534 -6.859885341080157 C 3.1408732560037524 -6.847999670849847 3.1155926240853167 -6.836378126624656 3.0902742598804362 -6.822719038931412 Z M 4.330194924763599 -6.881958728650732 L 4.295934008671151 -6.800456989928611 C 4.321969286318495 -6.789137303994982 4.3481177608251755 -6.777062972332446 4.374492629050528 -6.763932136649437 L 4.413432348662209 -6.8443773713510865 C 4.386076440989275 -6.858036459044332 4.358079084446769 -6.870639042717103 4.330194924763599 -6.881958728650732 Z M 3.2569755013963304 -6.898372273254492 L 3.289047944874943 -6.815361243074554 L 3.2893120708800607 -6.814757526491427 C 3.315951065110532 -6.825662157274155 3.3433069727834663 -6.835397087177075 3.370361022164837 -6.844226442205305 L 3.3433069727834663 -6.929275015853296 C 3.3143285767933786 -6.919464621377486 3.2864821493966536 -6.909578762328784 3.2569755013963304 -6.898372273254492 Z M 4.15741878512999 -6.943047300405877 L 4.133307854091363 -6.857432742461205 L 4.133307854091363 -6.857432742461205 C 4.16047510033207 -6.849320300875438 4.187981937150786 -6.840943733284553 4.215186915677939 -6.831359732527415 L 4.244618099105371 -6.915351802154934 C 4.216243419698411 -6.925350858062972 4.186812236270977 -6.934783929674329 4.15741878512999 -6.943047300405877 Z M 3.521101506514316 -6.973987775291127 C 3.4909156773579753 -6.96851659375654 3.4613712970712065 -6.961913443628591 3.4312609324877554 -6.954668844631069 L 3.4312609324877554 -6.9541028603343875 L 3.4532965877718853 -6.867318601509906 C 3.481256212027946 -6.874865058798991 3.5091781039975616 -6.880751295484478 3.5374018542587407 -6.885618760435938 Z M 3.965436911695659 -6.894749973755731 L 3.965436911695659 -6.89418398945905 L 3.965436911695659 -6.894863170615068 Z M 3.9782658890871048 -6.9825907366006845 L 3.965436911695659 -6.894749973755731 C 3.993207874519493 -6.89063715453318 4.021544821640009 -6.885203705285038 4.049315784463843 -6.879015610307988 L 4.069012037988355 -6.966554514861378 C 4.038599815113342 -6.972516216119756 4.007697072514538 -6.97825152365946 3.9782658890871048 -6.982666201173576 Z M 3.6122627105664664 -6.98791098898949 L 3.6122627105664664 -6.98791098898949 L 3.6122627105664664 -6.988552437859061 Z M 3.6122627105664664 -6.98791098898949 L 3.6222994987609507 -6.9001456907174274 C 3.65101376874592 -6.9032397382059525 3.6796525741579993 -6.905918730543577 3.7080272535649597 -6.907390289714949 L 3.703612576050845 -6.995797036856583 C 3.6728984948842673 -6.994325477685212 3.64259946886859 -6.991797414493369 3.612187245993576 -6.98798645356238 Z M 3.7940945989469776 -6.908673187454093 Z M 3.7951511029674503 -6.997381792887292 L 3.7940191343740874 -6.90837132916253 C 3.8226956720726113 -6.9080694708709665 3.851372209771135 -6.906748840845377 3.87963369231876 -6.903956651648415 L 3.8874065433265184 -6.99236339879005 C 3.8566924621599408 -6.9951555879870115 3.8263934361442633 -6.997268596027955 3.7950756383945583 -6.997268596027955 Z" fill="#ffffff" transform="matrix(1,0,0,1,0,0)" fill-rule="evenodd"></path><path d=" M 2.921183471974866 -4.925940941832998 C 2.954992921311583 -4.925940941832998 2.9685167010462696 -4.912417162098311 2.9685167010462696 -4.881988657695266 L 2.9685167010462696 -4.307228018971078 C 2.9685167010462696 -4.2835614044353765 2.9617548111789262 -4.256513844966003 2.887374022638149 -4.2057996709609275 L 2.5526604742046515 -3.9758954154712525 L 2.5526604742046515 -4.925940941832998 M 3.4181823772246047 -3.049516503645209 C 3.394515762688903 -3.093468787782941 3.252516075474692 -3.4518489507521406 3.1138973331941524 -3.8508004529254 C 3.2694208001430503 -3.948847856001879 3.4215633221582764 -4.036752424277343 3.4215633221582764 -4.182133056425226 L 3.4215633221582764 -4.976655115838073 C 3.4215633221582764 -5.199797481460405 3.2795636349440653 -5.301225829470556 3.053040324388062 -5.301225829470556 L 2.028614009485539 -5.297844884536884 C 1.9812807804141357 -5.297844884536884 1.9542332209447622 -5.270797325067511 1.9542332209447622 -5.240368820664465 C 1.9542332209447622 -5.16936897705736 2.0996138530926447 -5.091607243582911 2.0996138530926447 -4.956369446236043 L 2.0996138530926447 -3.086706897915598 C 2.0996138530926447 -2.95146910056873 1.9542332209447622 -2.873707367094281 1.9542332209447622 -2.8027075234871757 C 1.9542332209447622 -2.7722790190841304 1.9812807804141357 -2.745231459614757 2.028614009485539 -2.745231459614757 L 2.623660317811757 -2.745231459614757 C 2.6709935468831607 -2.745231459614757 2.6980411063525342 -2.7722790190841304 2.6980411063525342 -2.8027075234871757 C 2.6980411063525342 -2.873707367094281 2.5526604742046515 -2.95146910056873 2.5526604742046515 -3.086706897915598 L 2.5526604742046515 -3.4653727304868274 C 2.5526604742046515 -3.4856584000888575 2.556041419138323 -3.4958012348898726 2.5661842539393382 -3.502563124757216 L 2.691279216485191 -3.580324858231665 C 2.691279216485191 -3.580324858231665 2.9279453618422093 -2.975135715104432 2.9279453618422093 -2.9379453208340434 C 2.9279453618422093 -2.863564532293266 2.8501836283677604 -2.853421697492251 2.8501836283677604 -2.8027075234871757 C 2.8501836283677604 -2.7722790190841304 2.8806121327708056 -2.745231459614757 2.9279453618422093 -2.745231459614757 L 3.512848835367412 -2.745231459614757 C 3.5500392296378007 -2.745231459614757 3.5838486789745176 -2.7722790190841304 3.5838486789745176 -2.8027075234871757 C 3.5838486789745176 -2.877088312027953 3.5196107252347555 -2.8703264221606095 3.4181823772246047 -3.049516503645209" fill="NA" transform="matrix(1,0,0,1,0,0)" fill-rule="nonzero"></path><path d=" M 4.408880134539312 -3.654705646772442 L 4.632022500161644 -4.604751173134187 L 4.794307856977885 -3.860943287726415 M 5.4265445595744914 -3.161087686456375 C 5.389354165304103 -3.2963254838032428 4.973497938462485 -4.956369446236043 4.973497938462485 -5.061178739179866 C 4.973497938462485 -5.125416692919628 5.061402506737949 -5.196416536526733 5.061402506737949 -5.236987875730794 C 5.061402506737949 -5.274178270001182 5.034354947268575 -5.297844884536884 4.987021718197171 -5.297844884536884 L 4.287166116927131 -5.297844884536884 C 4.239832887855727 -5.297844884536884 4.212785328386354 -5.274178270001182 4.212785328386354 -5.236987875730794 C 4.212785328386354 -5.196416536526733 4.300689896661818 -5.125416692919628 4.300689896661818 -5.061178739179866 C 4.300689896661818 -4.956369446236043 3.8408813856824677 -3.15094485165536 3.813833826213094 -3.0461355587115375 C 3.783405321810049 -2.9278024860330283 3.651548469396853 -2.8601835873595944 3.651548469396853 -2.8060884684208474 C 3.651548469396853 -2.7688980741504587 3.6785960288662265 -2.745231459614757 3.72592925793763 -2.745231459614757 L 4.327737456131191 -2.745231459614757 C 4.3818325750699385 -2.745231459614757 4.40549918960564 -2.7722790190841304 4.40549918960564 -2.8060884684208474 C 4.40549918960564 -2.8601835873595944 4.283785171993459 -2.9041358714973264 4.283785171993459 -3.0359927239105224 L 4.283785171993459 -3.127278237119658 L 4.895736204988036 -3.458610840619484 C 4.895736204988036 -3.458610840619484 5.007307387799202 -3.0021832745738055 5.007307387799202 -2.9785166600381037 C 5.007307387799202 -2.897373981629983 4.919402819523738 -2.8601835873595944 4.919402819523738 -2.8060884684208474 C 4.919402819523738 -2.7722790190841304 4.943069434059439 -2.745231459614757 4.9971645529981865 -2.745231459614757 L 5.551639522120344 -2.745231459614757 C 5.598972751191748 -2.745231459614757 5.62602031066112 -2.7688980741504587 5.62602031066112 -2.8060884684208474 C 5.62602031066112 -2.8601835873595944 5.4806396785132385 -2.954850045502402 5.4265445595744914 -3.161087686456375" fill="NA" transform="matrix(1,0,0,1,0,0)" fill-rule="nonzero"></path></mask></defs></svg>